<svg id="Layer_1" data-name="Layer 1" xmlns="http://www.w3.org/2000/svg" viewBox="0 0 3881.74 3454.85"><defs><style>.cls-1{fill:#f5ebdd;}.cls-2{fill:#87530e;}.cls-3{fill:#ffb7d5;}.cls-4{fill:#30242a;}.cls-5{fill:#3ec1f3;}.cls-6{fill:#4856df;}.cls-7{fill:#fff;}.cls-8{fill:#f3f7ff;}.cls-9{fill:#ca7358;}.cls-10{fill:#ff7235;}.cls-11{fill:#ff7757;}.cls-12{fill:#ffc0c2;}.cls-13{fill:#141c37;}.cls-14{fill:#e3eafc;}.cls-15{fill:#eaa58b;}.cls-16{fill:#383979;}.cls-17{fill:#dd4926;}.cls-18{fill:#a15842;}.cls-19{fill:#4756df;}.cls-20{opacity:0.62;}.cls-21{fill:#ffa21d;}</style></defs><g id="Group_6881" data-name="Group 6881"><g id="Element"><g id="Plant"><g id="_3" data-name=" 3"><g id="Group_6645" data-name="Group 6645"><g id="Group_6633" data-name="Group 6633"><g id="Group_6632" data-name="Group 6632"><g id="Group_6631" data-name="Group 6631"><g id="Group_6630" data-name="Group 6630"><path id="Path_5670" data-name="Path 5670" class="cls-1" d="M3218.73,3320.89S4050.57,3055.51,3948.1,2743C3835.08,2398.3,3369.61,2919.12,3218.73,3320.89Z" transform="translate(-76 -292.15)"/></g></g></g></g><g id="Group_6637" data-name="Group 6637"><g id="Group_6636" data-name="Group 6636"><g id="Group_6635" data-name="Group 6635"><g id="Group_6634" data-name="Group 6634"><path id="Path_5671" data-name="Path 5671" class="cls-1" d="M3218.73,3320.89S4050.57,3055.51,3948.1,2743C3835.08,2398.3,3369.61,2919.12,3218.73,3320.89Z" transform="translate(-76 -292.15)"/></g></g></g></g><g id="Group_6638" data-name="Group 6638"><path id="Path_5672" data-name="Path 5672" class="cls-2" d="M3700,2673q-8.25,5-16.59,10.59a1413.86,1413.86,0,0,1-306,333.65q-6.87,10.4-13.61,20.89A1426.64,1426.64,0,0,0,3700,2673Z" transform="translate(-76 -292.15)"/></g><g id="Group_6644" data-name="Group 6644"><g id="Group_6643" data-name="Group 6643"><g id="Group_6642" data-name="Group 6642"><g id="Group_6641" data-name="Group 6641"><g id="Group_6640" data-name="Group 6640"><g id="Group_6639" data-name="Group 6639"><path id="Path_5673" data-name="Path 5673" class="cls-3" d="M3135.86,3401.94c187.54-215.33,493.77-469.89,497.59-473.06a6.92,6.92,0,1,1,8.83,10.65c-3.83,3.18-312.16,259.49-498.29,474.06Z" transform="translate(-76 -292.15)"/></g></g></g></g></g></g></g><g id="Group_6656" data-name="Group 6656"><g id="Group_6649" data-name="Group 6649"><g id="Group_6648" data-name="Group 6648"><g id="Group_6647" data-name="Group 6647"><g id="Group_6646" data-name="Group 6646"><path id="Path_5674" data-name="Path 5674" class="cls-1" d="M3296.8,3075.44s-24.14-1019.2,385.89-923.38C3996.06,2225.29,3713.62,2800.15,3296.8,3075.44Z" transform="translate(-76 -292.15)"/></g></g></g></g><g id="Group_6655" data-name="Group 6655"><g id="Group_6654" data-name="Group 6654"><g id="Group_6653" data-name="Group 6653"><g id="Group_6652" data-name="Group 6652"><g id="Group_6651" data-name="Group 6651"><g id="Group_6650" data-name="Group 6650"><path id="Path_5675" data-name="Path 5675" class="cls-3" d="M3128.87,3442.44c158.81-355.28,421.66-931.46,424.79-938.32a6.92,6.92,0,1,1,12.59,5.74h0c-3.15,6.92-269.75,591.33-428.14,945.83Z" transform="translate(-76 -292.15)"/></g></g></g></g></g></g></g></g><g id="_2" data-name=" 2"><g id="Group_6661" data-name="Group 6661"><g id="Group_6660" data-name="Group 6660"><g id="Group_6659" data-name="Group 6659"><g id="Group_6658" data-name="Group 6658"><g id="Group_6657" data-name="Group 6657"><path id="Path_5676" data-name="Path 5676" class="cls-4" d="M3241.18,3554.67A3173,3173,0,0,0,3620,3227.89c113.68-118,175.27-221.09,183.1-306.38a10.29,10.29,0,0,0-20.44-2.37c0,.16,0,.33,0,.5-13.61,149.1-211.39,373.82-565.49,626.79Z" transform="translate(-76 -292.15)"/></g></g></g></g></g><g id="Group_6665" data-name="Group 6665"><g id="Group_6664" data-name="Group 6664"><g id="Group_6663" data-name="Group 6663"><g id="Group_6662" data-name="Group 6662"><path id="Path_5677" data-name="Path 5677" class="cls-4" d="M3712.55,3114.21s55.3,65.75,167.15-36C3879.7,3078.25,3766.52,3001.56,3712.55,3114.21Z" transform="translate(-76 -292.15)"/></g></g></g></g><g id="Group_6669" data-name="Group 6669"><g id="Group_6668" data-name="Group 6668"><g id="Group_6667" data-name="Group 6667"><g id="Group_6666" data-name="Group 6666"><path id="Path_5678" data-name="Path 5678" class="cls-4" d="M3657.6,3169.63s68.75-51.55-26.63-168.89C3631,3000.76,3548.13,3109.51,3657.6,3169.63Z" transform="translate(-76 -292.15)"/></g></g></g></g><g id="Group_6673" data-name="Group 6673"><g id="Group_6672" data-name="Group 6672"><g id="Group_6671" data-name="Group 6671"><g id="Group_6670" data-name="Group 6670"><path id="Path_5679" data-name="Path 5679" class="cls-4" d="M3777.83,2983.21s82-25.68,31.22-168.12C3809.05,2815.09,3694.67,2890,3777.83,2983.21Z" transform="translate(-76 -292.15)"/></g></g></g></g><g id="Group_6677" data-name="Group 6677"><g id="Group_6676" data-name="Group 6676"><g id="Group_6675" data-name="Group 6675"><g id="Group_6674" data-name="Group 6674"><path id="Path_5680" data-name="Path 5680" class="cls-4" d="M3550.49,3284.58s29.78,80.61,169.45,22.7C3719.91,3307.28,3639.35,3196.82,3550.49,3284.58Z" transform="translate(-76 -292.15)"/></g></g></g></g><g id="Group_6681" data-name="Group 6681"><g id="Group_6680" data-name="Group 6680"><g id="Group_6679" data-name="Group 6679"><g id="Group_6678" data-name="Group 6678"><path id="Path_5681" data-name="Path 5681" class="cls-4" d="M3486,3332.58s76.64-38.88,3-170.95C3489,3161.63,3388.54,3254.42,3486,3332.58Z" transform="translate(-76 -292.15)"/></g></g></g></g><g id="Group_6685" data-name="Group 6685"><g id="Group_6684" data-name="Group 6684"><g id="Group_6683" data-name="Group 6683"><g id="Group_6682" data-name="Group 6682"><path id="Path_5682" data-name="Path 5682" class="cls-4" d="M3404.13,3407.07s28.29,81.16,169,25.91C3573.12,3433,3494.64,3321,3404.13,3407.07Z" transform="translate(-76 -292.15)"/></g></g></g></g><g id="Group_6689" data-name="Group 6689"><g id="Group_6688" data-name="Group 6688"><g id="Group_6687" data-name="Group 6687"><g id="Group_6686" data-name="Group 6686"><path id="Path_5683" data-name="Path 5683" class="cls-4" d="M3340.92,3464.55s-76.32-39.48-1.67-171C3339.27,3293.59,3439,3387.17,3340.92,3464.55Z" transform="translate(-76 -292.15)"/></g></g></g></g></g><g id="_1" data-name=" 1"><g id="Group_6728" data-name="Group 6728"><g id="Group_6704" data-name="Group 6704"><g id="Group_6696" data-name="Group 6696"><g id="Group_6695" data-name="Group 6695"><g id="Group_6694" data-name="Group 6694"><g id="Group_6693" data-name="Group 6693"><g id="Group_6692" data-name="Group 6692"><g id="Group_6691" data-name="Group 6691"><g id="Group_6690" data-name="Group 6690"><path id="Path_5684" data-name="Path 5684" class="cls-4" d="M365.91,2948.92a33.15,33.15,0,0,1-14.89,7.26c-18.93,3.59-38.65-14.53-56.52-1.6-20.63,14.92-34.46,37.16-49.17,57.94s-32,41.45-55.76,50.52c-42.09,16.06-92.85-13.73-106.67-56.59s-14.06-88.29,68.65-138.2c55.19-33.29,172.38-59.93,226.73-11.46,20,17.81,13,54.76,1.35,75.12A61.31,61.31,0,0,1,365.91,2948.92Z" transform="translate(-76 -292.15)"/></g></g></g></g></g></g></g><g id="Group_6702" data-name="Group 6702"><g id="Group_6701" data-name="Group 6701"><g id="Group_6700" data-name="Group 6700"><g id="Group_6699" data-name="Group 6699"><g id="Group_6698" data-name="Group 6698"><g id="Group_6697" data-name="Group 6697"><path id="Path_5685" data-name="Path 5685" class="cls-3" d="M89.6,2923c21.64-29.89,75.05-38.54,108.78-23.63s58.45,44.48,80.57,74,43.69,60.64,74.31,81.22,73.43,28,104,7.29a89.33,89.33,0,0,0,35.31-61.16,203.61,203.61,0,0,0-4.85-72.11c-7.3-34.68-19.22-70.91-47-93-30.94-24.56-73.87-25.72-113.35-24.43-45.3,1.48-91.27,4.88-133.79,20.59s-85.91,49.61-104,91.19" transform="translate(-76 -292.15)"/></g></g></g></g></g></g><g id="Group_6703" data-name="Group 6703"><path id="Path_5686" data-name="Path 5686" class="cls-4" d="M475.17,3454.2l-8.32-.25c11.83-382.39-62.74-523.42-127.38-574.39a126.4,126.4,0,0,0-112.4-25.62,5.6,5.6,0,0,1-3.26.3l1-4-.72-4.09A134.93,134.93,0,0,1,344.63,2873C464.45,2967.53,481.76,3241.21,475.17,3454.2Z" transform="translate(-76 -292.15)"/></g></g><g id="Group_6712" data-name="Group 6712"><g id="Group_6710" data-name="Group 6710"><g id="Group_6709" data-name="Group 6709"><g id="Group_6708" data-name="Group 6708"><g id="Group_6707" data-name="Group 6707"><g id="Group_6706" data-name="Group 6706"><g id="Group_6705" data-name="Group 6705"><path id="Path_5687" data-name="Path 5687" class="cls-3" d="M558.56,3076.42c-44.7-52.77-50.65-137.47-44.06-206.31S537,2732,526.15,2663.71c-6.44-40.46-22.13-79.06-27.47-119.72s2.22-86.55,33.69-112.79c36.19-30.13,93.16-23,130.79,5.27s59.44,72.76,75.38,117.07c35,97.37,47.86,205.3,19.1,304.68s-96.18,188.24-195.2,218.2" transform="translate(-76 -292.15)"/></g></g></g></g></g></g><g id="Group_6711" data-name="Group 6711"><path id="Path_5688" data-name="Path 5688" class="cls-4" d="M523.81,3511.21c-3-3-73.37-78.39,26.83-414.46,105.94-355.32,32.76-627.78,31.72-629.54l2.35-1.38,3.38-4.51c6.76,5.07,75.33,286.3-29.48,637.8C480,3363,505.35,3480.17,529.72,3505.34Z" transform="translate(-76 -292.15)"/></g></g><g id="Group_6727" data-name="Group 6727"><g id="Group_6719" data-name="Group 6719"><g id="Group_6718" data-name="Group 6718"><g id="Group_6717" data-name="Group 6717"><g id="Group_6716" data-name="Group 6716"><g id="Group_6715" data-name="Group 6715"><g id="Group_6714" data-name="Group 6714"><g id="Group_6713" data-name="Group 6713"><path id="Path_5689" data-name="Path 5689" class="cls-4" d="M778.21,3121.53c24.37-48.7,63.08-92.5,116-105.21a166.14,166.14,0,0,1,151.15,41.07c18.68,18,33.59,44.36,25.84,69.08-8.24,26.31-39.3,39.36-66.82,37.66s-53-14.3-78.88-23.71-55.25-15.63-80.56-4.71c-21.56,9.29-31.4,27.61-43,46.48-9.15,15-24.62,22.78-36.17,1.45C756,3165.4,770.23,3137.5,778.21,3121.53Z" transform="translate(-76 -292.15)"/></g></g></g></g></g></g></g><g id="Group_6725" data-name="Group 6725"><g id="Group_6724" data-name="Group 6724"><g id="Group_6723" data-name="Group 6723"><g id="Group_6722" data-name="Group 6722"><g id="Group_6721" data-name="Group 6721"><g id="Group_6720" data-name="Group 6720"><path id="Path_5690" data-name="Path 5690" class="cls-3" d="M578,3306.85c-40.38-38.36-38.36-105.13-18.22-157s64.09-91.78,113.19-118.07a358.5,358.5,0,0,1,312.43-10.12A148.28,148.28,0,0,0,865.48,3092c-22.13,36.76-27.05,81.35-45.33,120.16A189.14,189.14,0,0,1,578,3306.85" transform="translate(-76 -292.15)"/></g></g></g></g></g></g><g id="Group_6726" data-name="Group 6726"><path id="Path_5691" data-name="Path 5691" class="cls-4" d="M544.85,3474.73l-8.26-1c16.43-130.12,59.93-304.41,173.94-395.82,68.75-55.1,129.66-53.73,132.23-53.75l-.26,8.32C840,3032.37,600.93,3030.43,544.85,3474.73Z" transform="translate(-76 -292.15)"/></g></g></g><g id="Group_6736" data-name="Group 6736"><g id="Group_6734" data-name="Group 6734"><g id="Group_6733" data-name="Group 6733"><g id="Group_6732" data-name="Group 6732"><g id="Group_6731" data-name="Group 6731"><g id="Group_6730" data-name="Group 6730"><g id="Group_6729" data-name="Group 6729"><path id="Path_5692" data-name="Path 5692" class="cls-5" d="M358.42,3518.35l45.34,209.33a7.43,7.43,0,0,0,7.27,5.88H609.94a7.44,7.44,0,0,0,7.29-6l42.45-209.34a7.45,7.45,0,0,0-7.3-8.93H365.74a7.49,7.49,0,0,0-7.47,7.51A7.76,7.76,0,0,0,358.42,3518.35Z" transform="translate(-76 -292.15)"/></g></g></g></g></g></g><g id="Group_6735" data-name="Group 6735"><path id="Path_5693" data-name="Path 5693" class="cls-6" d="M628.07,3674.51c-29.12-20.87-65.91-10.05-124.45,7.17l-13.09,3.84a137.26,137.26,0,0,1-38.51,5.72,121.32,121.32,0,0,1-59.47-15.6l-3.9-18a112.3,112.3,0,0,0,98.16,15.15l13.07-3.84c57.81-17,97.76-28.65,131-8.38ZM499.91,3643l-13.06,3.83A111.35,111.35,0,0,1,382,3626.69l4.17,19.14a123.52,123.52,0,0,0,66.19,19.36,136.05,136.05,0,0,0,38.24-5.66h0l13.07-3.84c63.15-18.6,99.29-29.13,129-3.65l2.91-14.33c-34.26-24.49-75.59-12.4-135.72,5.28Zm0-29.26-13.08,3.84a112.28,112.28,0,0,1-112.7-27.08l4.54,21a125.11,125.11,0,0,0,73.75,24.4,135.2,135.2,0,0,0,38.12-5.64l13.1-3.84c65.94-19.4,103.1-30.2,134,1.2l3.1-15.32c-35.26-29.62-78.1-17-140.87,1.43Zm0-28.17-13.08,3.84a113.41,113.41,0,0,1-117.17-31.8,6.2,6.2,0,0,0-3.11-2.08l4.8,22.13A124.33,124.33,0,0,0,452,3607.81a137.31,137.31,0,0,0,38.57-5.72l13.1-3.85c71.16-20.94,107.16-31.46,138.62,6.08l3.18-15.69c-36.12-35.16-80.35-22.25-145.58-3.07Z" transform="translate(-76 -292.15)"/></g></g><g id="Group_6742" data-name="Group 6742"><g id="Group_6741" data-name="Group 6741"><g id="Group_6740" data-name="Group 6740"><g id="Group_6739" data-name="Group 6739"><g id="Group_6738" data-name="Group 6738"><g id="Group_6737" data-name="Group 6737"><path id="Path_5694" data-name="Path 5694" class="cls-5" d="M689.94,3517.86H326.59a13.24,13.24,0,0,1-13.14-11.66l-5.73-48.27a13.23,13.23,0,0,1,11.59-14.69,11.42,11.42,0,0,1,1.55-.1H689.94a13.23,13.23,0,0,1,13.23,13.23h0v48.27A13.23,13.23,0,0,1,689.94,3517.86Z" transform="translate(-76 -292.15)"/></g></g></g></g></g></g></g></g><g id="Card"><g id="Group_6779" data-name="Group 6779"><g id="Group_6778" data-name="Group 6778"><g id="Group_6777" data-name="Group 6777"><g id="Group_6744" data-name="Group 6744"><g id="Group_6743" data-name="Group 6743"><path id="Path_5695" data-name="Path 5695" class="cls-5" d="M3790.48,1449.69l-1340.14-157.3a62.77,62.77,0,0,1-55-69.65l97.17-827.85a62.77,62.77,0,0,1,69.64-55h0L3902.29,497.16a62.75,62.75,0,0,1,55,69.64h0l-97.16,827.85A62.77,62.77,0,0,1,3790.48,1449.69Z" transform="translate(-76 -292.15)"/></g></g><g id="Group_6746" data-name="Group 6746"><g id="Group_6745" data-name="Group 6745"><path id="Path_5696" data-name="Path 5696" class="cls-6" d="M3722.81,700.72a101.79,101.79,0,1,1-89.24-113A101.78,101.78,0,0,1,3722.81,700.72Z" transform="translate(-76 -292.15)"/></g></g><g id="Group_6748" data-name="Group 6748"><g id="Group_6747" data-name="Group 6747"><path id="Path_5697" data-name="Path 5697" class="cls-6" d="M3750.07,809a107.42,107.42,0,0,1-18.89-.56,105.35,105.35,0,1,1,18.89.56Zm-12.38-203.26A97.65,97.65,0,1,0,3840.5,714.54h0a97.62,97.62,0,0,0-102.81-108.85Z" transform="translate(-76 -292.15)"/></g></g><g id="Group_6764" data-name="Group 6764"><g id="Group_6749" data-name="Group 6749"><path id="Path_5698" data-name="Path 5698" class="cls-6" d="M2558,957.22l-9.55,81.33-8.36-1,8.67-73.88-19.14-2.25.87-7.43Z" transform="translate(-76 -292.15)"/></g><g id="Group_6750" data-name="Group 6750"><path id="Path_5699" data-name="Path 5699" class="cls-6" d="M2633,1040.92l-.83,7.44-57-6.66.7-5.93,37.69-29.12c10.24-8,12.62-13.25,13.31-18.82,1.11-9.42-4.84-16-17.26-17.48a27.82,27.82,0,0,0-23.26,6.46L2581,971a36.8,36.8,0,0,1,30.17-8.23c16.5,1.93,26,11.53,24.38,25.12-.92,7.78-4.16,14.46-16.35,23.88l-30.8,23.92Z" transform="translate(-76 -292.15)"/></g><g id="Group_6751" data-name="Group 6751"><path id="Path_5700" data-name="Path 5700" class="cls-6" d="M2720.21,1037l-16.26-1.9-2.5,21.37-8.32-1,2.5-21.38-45.9-5.38.72-6,49.44-48.85,9.28,1.09-47.75,47.63,35.31,4.16,2.22-18.81,8.12,1-2.21,18.81,16.27,1.92Z" transform="translate(-76 -292.15)"/></g><g id="Group_6752" data-name="Group 6752"><path id="Path_5701" data-name="Path 5701" class="cls-6" d="M2844.82,1051.65l-16.25-1.91-2.5,21.38-8.32-1,2.5-21.38-45.89-5.39.7-6,49.43-48.85,9.29,1.09L2786,1037.21l35.32,4.16,2.21-18.81,8.13,1-2.2,18.81,16.25,1.91Z" transform="translate(-76 -292.15)"/></g><g id="Group_6753" data-name="Group 6753"><path id="Path_5702" data-name="Path 5702" class="cls-6" d="M2916.2,1057.44c-1.62,13.82-12.54,23.49-32.39,21.16a42.23,42.23,0,0,1-27.94-13.88l4.85-6.14a35.51,35.51,0,0,0,23.86,12.34c13.83,1.66,21.94-4.26,23.1-14.15,1.22-10.45-4.53-17.73-25.2-20.15l-17.31-2,9-40.29,44.5,5.23-.88,7.44-37.17-4.37-5.83,25.58,10.46,1.23C2909.72,1032.3,2917.89,1043,2916.2,1057.44Z" transform="translate(-76 -292.15)"/></g><g id="Group_6754" data-name="Group 6754"><path id="Path_5703" data-name="Path 5703" class="cls-6" d="M2996.62,1066.52a25.51,25.51,0,0,1-28.53,22.09c-.73-.09-1.45-.22-2.17-.37-21.64-2.54-31.63-18.9-28.57-44.58,3.25-27.64,20-40.28,42.11-37.68a37.57,37.57,0,0,1,18.77,6.66l-4.17,6.34a28.74,28.74,0,0,0-15.33-5.69c-17.54-2-30.14,7.89-32.73,30-.22,1.85-.37,4.16-.42,6.65a26.15,26.15,0,0,1,26.5-11C2988.21,1040.81,2998.34,1051.65,2996.62,1066.52Zm-8.32-.73c1.26-10.7-5.83-18.47-18.39-20a18.94,18.94,0,0,0-22.75,14.13c-.09.39-.17.79-.23,1.19-1.06,8.95,5.38,18.31,19.44,20a17.9,17.9,0,0,0,21.6-13.18,19.61,19.61,0,0,0,.39-2.14Z" transform="translate(-76 -292.15)"/></g><g id="Group_6755" data-name="Group 6755"><path id="Path_5704" data-name="Path 5704" class="cls-6" d="M3107.76,1080.51c-1.59,13.59-12.69,22.89-32.32,20.58a42.52,42.52,0,0,1-28-13.89l4.83-6.14a35.85,35.85,0,0,0,24.14,12.36c13.47,1.59,21.64-3.82,22.83-13.92,1.14-9.76-5-17-20-18.72l-5.83-.69.72-6.16,25.85-25.57-41.61-4.89.88-7.43,52.27,6.13-.7,5.93-26.41,26.22C3101.66,1057.3,3109.28,1067.5,3107.76,1080.51Z" transform="translate(-76 -292.15)"/></g><g id="Group_6756" data-name="Group 6756"><path id="Path_5705" data-name="Path 5705" class="cls-6" d="M3189.4,1089.15a25.51,25.51,0,0,1-28.49,22.1c-.74-.1-1.47-.22-2.2-.38-21.64-2.5-31.63-18.9-28.56-44.58,3.24-27.64,20-40.28,42.1-37.68a37.54,37.54,0,0,1,18.77,6.66l-4.16,6.34a28.72,28.72,0,0,0-15.35-5.69c-17.54-2.05-30.13,7.89-32.72,30-.22,1.86-.38,4.16-.43,6.65a26.16,26.16,0,0,1,26.5-11C3181,1063.43,3191.15,1074.28,3189.4,1089.15Zm-8.27-.74c1.25-10.68-5.83-18.46-18.38-19.94a18.93,18.93,0,0,0-22.75,14.11c-.09.4-.17.8-.24,1.21-1.06,8.94,5.38,18.31,19.43,20a17.91,17.91,0,0,0,21.57-13.27,16.48,16.48,0,0,0,.37-2.08Z" transform="translate(-76 -292.15)"/></g><g id="Group_6757" data-name="Group 6757"><path id="Path_5706" data-name="Path 5706" class="cls-6" d="M3270.9,1040.88l-.7,5.94-42.89,71.39-9.06-1.07,42.13-69.91-41.83-4.91-1.78,15.23-8.25-1,2.66-22.65Z" transform="translate(-76 -292.15)"/></g><g id="Group_6758" data-name="Group 6758"><path id="Path_5707" data-name="Path 5707" class="cls-6" d="M3387.15,1054.53l-.7,5.93-42.89,71.39-9-1.06,42.13-70-41.82-4.9-1.79,15.22-8.24-1,2.66-22.64Z" transform="translate(-76 -292.15)"/></g><g id="Group_6759" data-name="Group 6759"><path id="Path_5708" data-name="Path 5708" class="cls-6" d="M3460.24,1122.59c-1.66,14.4-14.93,21.92-34.33,19.64s-30.31-12.63-28.63-27a20.43,20.43,0,0,1,18-18.14,18.47,18.47,0,0,1-10.67-19.39c1.55-13.24,13.78-20.17,31-18.15s27.72,11.65,26.16,24.86a18.51,18.51,0,0,1-15.09,16.36A20.62,20.62,0,0,1,3460.24,1122.59Zm-8.57-1.13c1.18-10-6.66-17.27-21.1-19s-23.61,3.59-24.79,13.58,6.57,17.37,21,19.06,23.77-3.57,25-13.69Zm-20.32-25.58c12.67,1.49,20.88-3.33,21.91-12.15,1.08-9.16-6.28-15.7-18.47-17.12s-20.75,3.21-21.81,12.28,5.74,15.51,18.4,17Z" transform="translate(-76 -292.15)"/></g><g id="Group_6760" data-name="Group 6760"><path id="Path_5709" data-name="Path 5709" class="cls-6" d="M3541.45,1113.12c-3.25,27.64-20,40.28-42.11,37.69a37.5,37.5,0,0,1-18.76-6.66l4.16-6.34a28.79,28.79,0,0,0,15.35,5.68c17.54,2.06,30.14-7.89,32.72-30,.22-1.85.38-4.16.43-6.66a26.18,26.18,0,0,1-26.51,11c-16.12-1.89-26.29-12.74-24.53-27.61a25.51,25.51,0,0,1,28.51-22.09c.73.1,1.46.22,2.18.38C3534.49,1071.12,3544.46,1087.48,3541.45,1113.12Zm-9.61-17.47c1-8.94-5.38-18.31-19.44-20a17.91,17.91,0,0,0-21.57,13.26,20.68,20.68,0,0,0-.37,2.06c-1.25,10.7,5.83,18.47,18.4,20a18.94,18.94,0,0,0,22.73-14.16c.09-.38.16-.77.23-1.16Z" transform="translate(-76 -292.15)"/></g><g id="Group_6761" data-name="Group 6761"><path id="Path_5710" data-name="Path 5710" class="cls-6" d="M3628.59,1082.87l-9.54,81.31-8.37-1,8.68-73.89-19.15-2.25.89-7.44Z" transform="translate(-76 -292.15)"/></g><g id="Group_6762" data-name="Group 6762"><path id="Path_5711" data-name="Path 5711" class="cls-6" d="M3703.54,1166.56l-.83,7.44-57-6.65.7-5.93,37.69-29.13c10.23-8,12.62-13.23,13.31-18.82,1.11-9.4-4.85-16-17.27-17.47a27.75,27.75,0,0,0-23.25,6.45l-5.33-5.83a36.83,36.83,0,0,1,30.18-8.23c16.49,1.93,26,11.53,24.38,25.12-.93,7.78-4.16,14.46-16.36,23.87l-30.83,23.93Z" transform="translate(-76 -292.15)"/></g><g id="Group_6763" data-name="Group 6763"><path id="Path_5712" data-name="Path 5712" class="cls-6" d="M3778.35,1159.21c-1.59,13.59-12.68,22.89-32.33,20.59a42.57,42.57,0,0,1-28-13.9l4.83-6.14a35.87,35.87,0,0,0,24.14,12.36c13.48,1.58,21.64-3.81,22.83-13.92,1.15-9.75-5-17-20.05-18.73l-5.82-.67.71-6.16,25.85-25.58-41.61-4.88.83-7.44,52.29,6.13-.7,5.94-26.4,26.21C3772.25,1136,3779.88,1146.2,3778.35,1159.21Z" transform="translate(-76 -292.15)"/></g></g><g id="Group_6766" data-name="Group 6766"><g id="Group_6765" data-name="Group 6765"><rect id="Rectangle_8594" data-name="Rectangle 8594" class="cls-6" x="3449.89" y="897.41" width="35.55" height="655.79" rx="8.11" transform="translate(1770.68 4234.43) rotate(-83.31)"/></g></g><g id="Group_6768" data-name="Group 6768"><g id="Group_6767" data-name="Group 6767"><rect id="Rectangle_8595" data-name="Rectangle 8595" class="cls-6" x="3600.26" y="1146.26" width="35.55" height="336.35" rx="6.57" transform="translate(1814.99 4462.52) rotate(-83.31)"/></g></g><g id="Group_6770" data-name="Group 6770"><g id="Group_6769" data-name="Group 6769"><path id="Rectangle_8596" data-name="Rectangle 8596" class="cls-6" d="M2581.63,682l191.21,22.53A41.3,41.3,0,0,1,2809,750.34l-14.39,122.09a41.3,41.3,0,0,1-45.84,36.19l-191.22-22.53a41.3,41.3,0,0,1-36.18-45.85h0l14.39-122.08A41.31,41.31,0,0,1,2581.63,682Z" transform="translate(-76 -292.15)"/></g></g><g id="Group_6772" data-name="Group 6772"><g id="Group_6771" data-name="Group 6771"><path id="Path_5713" data-name="Path 5713" class="cls-5" d="M2523.27,824.77l1.55-13.1,140.7,16.52a29.65,29.65,0,1,0,7.52-58.83l-.6-.07-140.72-16.53,1.55-13.1L2674,756.18a42.85,42.85,0,0,1-10,85.1Z" transform="translate(-76 -292.15)"/></g></g><g id="Group_6774" data-name="Group 6774"><g id="Group_6773" data-name="Group 6773"><rect id="Rectangle_8597" data-name="Rectangle 8597" class="cls-5" x="2746.69" y="760.01" width="13.18" height="97.25" transform="translate(1550.77 3155.69) rotate(-83.25)"/></g></g><g id="Group_6776" data-name="Group 6776"><g id="Group_6775" data-name="Group 6775"><rect id="Rectangle_8598" data-name="Rectangle 8598" class="cls-6" x="2910.11" y="230.51" width="60.74" height="707.68" rx="13.37" transform="translate(1941.2 3144.47) rotate(-83.3)"/></g></g></g></g></g></g><g id="Mobile"><g id="Group_6780" data-name="Group 6780"><path id="Path_5779" data-name="Path 5779" class="cls-4" d="M2183.3,824.72h949.33c131.72,0,238.51,106.79,238.51,238.51h0V3476.11c0,131.72-106.79,238.51-238.51,238.51H2183.3c-131.73,0-238.51-106.79-238.51-238.51V1063.23c0-131.72,106.78-238.51,238.51-238.51Z" transform="translate(-76 -292.15)"/></g><g id="Group_6785" data-name="Group 6785"><g id="Group_6781" data-name="Group 6781"><path id="Path_5714" data-name="Path 5714" class="cls-7" d="M3310.75,1051.89V3481.14A179.09,179.09,0,0,1,3131.46,3660h-947a179.06,179.06,0,0,1-179.28-178.87h0V1051.89A179.07,179.07,0,0,1,2184.45,873h187A50,50,0,0,1,2421.56,923v.12a62.49,62.49,0,0,0,62.56,62.42h386.7a62.5,62.5,0,0,0,62.56-62.42h0A50.13,50.13,0,0,1,2983.56,873h147.9a179.09,179.09,0,0,1,179.29,178.89Z" transform="translate(-76 -292.15)"/></g><g id="Group_6784" data-name="Group 6784"><g id="Group_6782" data-name="Group 6782"><rect id="Rectangle_8600" data-name="Rectangle 8600" class="cls-8" x="2393.88" y="586.47" width="348.32" height="22.47" rx="10.87"/></g><g id="Group_6783" data-name="Group 6783"><circle id="Ellipse_530" data-name="Ellipse 530" class="cls-8" cx="2780.13" cy="597.72" r="12.64"/></g></g></g><g id="Group_6790" data-name="Group 6790"><g id="Group_6786" data-name="Group 6786"><rect id="Rectangle_8601" data-name="Rectangle 8601" class="cls-1" x="2022.49" y="878.06" width="1109.69" height="752.51" rx="101.36"/></g><g id="Group_6787" data-name="Group 6787"><path id="Path_5715" data-name="Path 5715" class="cls-3" d="M2098.49,1699.77v121.6a101.36,101.36,0,0,0,101.35,101.36h907a101.37,101.37,0,0,0,101.36-101.36v-121.6Z" transform="translate(-76 -292.15)"/></g><g id="Group_6788" data-name="Group 6788"><path id="Path_5716" data-name="Path 5716" class="cls-4" d="M2591.37,1812.54a25.44,25.44,0,0,1,4.94,15.93,23.55,23.55,0,0,1-10.4,20.6,53.16,53.16,0,0,1-30.35,7.2h-52.69V1754.39h49.78a48.73,48.73,0,0,1,28.61,7.14,22.57,22.57,0,0,1,10,19.35,24.46,24.46,0,0,1-13.53,22.42A26.82,26.82,0,0,1,2591.37,1812.54Zm-65.07-40.39v24h23.45a23.75,23.75,0,0,0,13.24-3.06,10.22,10.22,0,0,0,4.51-9,10,10,0,0,0-4.51-8.95,24.18,24.18,0,0,0-13.24-3Zm41.57,63.31a10.48,10.48,0,0,0,4.72-9.46q0-12.66-18.77-12.66H2526.3v25.18h27.52a26,26,0,0,0,14-3.06Z" transform="translate(-76 -292.15)"/><path id="Path_5717" data-name="Path 5717" class="cls-4" d="M2625.49,1845.94a46.51,46.51,0,0,1-12.15-34.49v-57.06h23.58v56.18q0,27.38,22.7,27.37a21.29,21.29,0,0,0,16.89-6.66,30.82,30.82,0,0,0,5.82-20.74v-56.18h23.31v57.05a48.18,48.18,0,0,1-80.12,34.5Z" transform="translate(-76 -292.15)"/><path id="Path_5718" data-name="Path 5718" class="cls-4" d="M2776.32,1820.18v36.09h-23.58v-36.38l-39.44-65.5h25l27.21,45.26,27.22-45.26h23.14Z" transform="translate(-76 -292.15)"/></g><g id="Group_6789" data-name="Group 6789"><path id="Path_5719" data-name="Path 5719" class="cls-3" d="M2414.88,2070.53H2266.24a12.41,12.41,0,0,1-12.39-12.39h0a12.4,12.4,0,0,1,12.39-12.38h148.64a12.41,12.41,0,0,1,12.39,12.38h0A12.42,12.42,0,0,1,2414.88,2070.53Zm220.91-12.39h0a12.42,12.42,0,0,0-12.4-12.38H2474.75a12.42,12.42,0,0,0-12.38,12.38h0a12.42,12.42,0,0,0,12.38,12.39h148.64A12.43,12.43,0,0,0,2635.79,2058.14Zm208.51,0h0a12.42,12.42,0,0,0-12.38-12.38H2683.27a12.42,12.42,0,0,0-12.39,12.38h0a12.42,12.42,0,0,0,12.39,12.39h148.62a12.42,12.42,0,0,0,12.41-12.39Zm208.51,0h0a12.41,12.41,0,0,0-12.38-12.38H2891.81a12.42,12.42,0,0,0-12.38,12.38h0a12.42,12.42,0,0,0,12.38,12.39h148.65a12.42,12.42,0,0,0,12.35-12.39Z" transform="translate(-76 -292.15)"/></g></g><g id="Group_6791" data-name="Group 6791"><rect id="Rectangle_8602" data-name="Rectangle 8602" class="cls-1" x="2411.45" y="1937.16" width="334.45" height="334.45" rx="63.7"/></g><g id="Group_6792" data-name="Group 6792"><rect id="Rectangle_8603" data-name="Rectangle 8603" class="cls-1" x="2800.43" y="1937.16" width="334.45" height="334.45" rx="67.2"/></g><g id="Group_6793" data-name="Group 6793"><path id="Path_5720" data-name="Path 5720" class="cls-1" d="M2004.63,2806.67v674.47A179.07,179.07,0,0,0,2183.9,3660h947a179.08,179.08,0,0,0,179.29-178.87V2806.67Z" transform="translate(-76 -292.15)"/></g><g id="Group_6794" data-name="Group 6794"><rect id="Rectangle_8604" data-name="Rectangle 8604" class="cls-3" x="2285.32" y="2996.25" width="592.26" height="229.94" rx="37.34"/></g><g id="Group_6795" data-name="Group 6795"><path id="Rectangle_8605" data-name="Rectangle 8605" class="cls-3" d="M2117,2981.82H3190a20.91,20.91,0,0,1,20.91,20.91h0a20.91,20.91,0,0,1-20.91,20.9H2117a20.91,20.91,0,0,1-20.91-20.9h0A20.91,20.91,0,0,1,2117,2981.82Z" transform="translate(-76 -292.15)"/></g><g id="Group_6796" data-name="Group 6796"><path id="Rectangle_8606" data-name="Rectangle 8606" class="cls-3" d="M2117,3130.46H3190a20.91,20.91,0,0,1,20.91,20.91h0a20.91,20.91,0,0,1-20.91,20.9H2117a20.91,20.91,0,0,1-20.91-20.9h0A20.91,20.91,0,0,1,2117,3130.46Z" transform="translate(-76 -292.15)"/></g><g id="Group_6797" data-name="Group 6797"><path id="Path_5721" data-name="Path 5721" class="cls-9" d="M1558.6,1305.73a4.16,4.16,0,1,1-.13-8.32c.53,0,53.27-2.5,93.32-70a4.16,4.16,0,0,1,7.23,4.12s0,.08-.07.13c-42.45,71.57-97.9,74-100.24,74.07Z" transform="translate(-76 -292.15)"/></g><g id="Group_6798" data-name="Group 6798"><rect id="Rectangle_8607" data-name="Rectangle 8607" class="cls-1" x="2022.49" y="1937.16" width="334.45" height="334.45" rx="50.05"/></g></g><g id="Buy"><g id="Group_6800" data-name="Group 6800"><g id="Group_6799" data-name="Group 6799"><rect id="Rectangle_8608" data-name="Rectangle 8608" class="cls-1" x="598.59" y="367.45" width="873.89" height="901.63" rx="72.87" transform="translate(-239.93 -24.5) rotate(-13.66)"/></g></g><g id="Group_6801" data-name="Group 6801"><path id="Path_5722" data-name="Path 5722" class="cls-7" d="M919.36,1021.08,789.24,691,678.51,718.42a8.32,8.32,0,0,1-4-16.16h0l124.83-31L929.57,1001.6l341.49-80.2a8.32,8.32,0,1,1,3.81,16.2Z" transform="translate(-76 -292.15)"/></g><g id="Group_6802" data-name="Group 6802"><path id="Path_5723" data-name="Path 5723" class="cls-7" d="M899.46,950.54a8.32,8.32,0,0,1-1.94-16.41L1227,854.82a33.78,33.78,0,0,0,25.8-34.62l-8.91-167.08a12,12,0,0,0-14.85-11c-193.77,47.25-403,98.34-409,100a8.32,8.32,0,0,1-4.57-16c7.15-2.05,288.79-70.74,409.6-100.21a28.62,28.62,0,0,1,35.41,26.34l8.91,167.08A50.42,50.42,0,0,1,1230.84,871L901.39,950.31A8.35,8.35,0,0,1,899.46,950.54Z" transform="translate(-76 -292.15)"/></g><g id="Group_6803" data-name="Group 6803"><path id="Path_5724" data-name="Path 5724" class="cls-7" d="M1002.27,1119.7h-.16a49.79,49.79,0,1,1,.15-99.57h.16a49.79,49.79,0,0,1-.15,99.57Zm0-82.93a33.14,33.14,0,1,0-.1,66.28h.11a33.14,33.14,0,0,0,33.14-33h0a33.18,33.18,0,0,0-33-33.24Z" transform="translate(-76 -292.15)"/></g><g id="Group_6804" data-name="Group 6804"><path id="Path_5725" data-name="Path 5725" class="cls-7" d="M1241.45,1064.33h-.15a49.78,49.78,0,0,1-35-85.1,50.58,50.58,0,0,1,35.25-14.48,49.86,49.86,0,0,1,49.64,49.93h0A49.85,49.85,0,0,1,1241.45,1064.33Zm0-82.94a33.15,33.15,0,0,0-.09,66.29h.1a33.15,33.15,0,0,0,.1-66.29Zm41.47,33.29Z" transform="translate(-76 -292.15)"/></g><g id="Group_6805" data-name="Group 6805"><circle id="Ellipse_531" data-name="Ellipse 531" class="cls-3" cx="1166.69" cy="324.8" r="87.81"/></g><g id="Group_6806" data-name="Group 6806"><path id="Path_5726" data-name="Path 5726" class="cls-7" d="M1250,663.81a12.46,12.46,0,0,1-6.83-2l-43.62-28.52a12.48,12.48,0,1,1,13.66-20.89l29.31,19.14,17.57-63.73a12.49,12.49,0,0,1,24.07,6.66h0L1262,654.64a12.48,12.48,0,0,1-12,9.16Z" transform="translate(-76 -292.15)"/></g></g><g id="sale"><g id="Group_6813" data-name="Group 6813"><g id="Group_6809" data-name="Group 6809"><g id="Group_6808" data-name="Group 6808"><g id="Group_6807" data-name="Group 6807"><path id="Path_5727" data-name="Path 5727" class="cls-10" d="M3294.18,1522.06l132.53,302.16a38.77,38.77,0,0,0,51.06,19.93l302.17-132.55a38.76,38.76,0,0,0,19.92-51.06l-132.55-302.16a38.74,38.74,0,0,0-51-19.92h0L3314.09,1471a38.76,38.76,0,0,0-19.92,51.06Zm201.5-58.26a20,20,0,1,1,8-19.39,20,20,0,0,1-8,19.39Z" transform="translate(-76 -292.15)"/></g></g></g><g id="Group_6812" data-name="Group 6812"><g id="Group_6811" data-name="Group 6811"><g id="Group_6810" data-name="Group 6810"><path id="Path_5728" data-name="Path 5728" class="cls-7" d="M3409.57,1598.5c-14.56-33.19-1.47-61.59,26.92-74.07s58.14-2.83,72.71,30.36c14.69,33.49,1.5,61.59-26.89,74.08S3424.26,1632,3409.57,1598.5Zm138.15-119.67L3593,1459l-45.77,243.6L3502,1722.44Zm-76.56,92.65c-7.87-17.93-16.11-20.71-22-18.13s-9.45,10.53-1.57,28.47,16.13,20.7,22,18.12,9.45-10.52,1.57-28.46Zm114.56,55.13c-14.57-33.21-1.5-61.59,26.89-74.07s58.15-2.83,72.71,30.38c14.68,33.47,1.5,61.58-26.89,74.07s-58,3.09-72.7-30.36Zm61.58-27c-7.87-17.94-16.11-20.71-22-18.12s-9.43,10.51-1.56,28.46,16.11,20.72,22,18.13,9.43-10.51,1.56-28.47Z" transform="translate(-76 -292.15)"/></g></g></g></g><g id="Group_6816" data-name="Group 6816"><g id="Group_6815" data-name="Group 6815"><g id="Group_6814" data-name="Group 6814"><path id="Path_5729" data-name="Path 5729" class="cls-11" d="M3507.61,1297.17c-20.34-95.85-72.22-205-138.82-291.94q-2.05-2.68-4.16-5.39v17c69.13,92,115.83,199.22,133.46,282.38a300.08,300.08,0,0,1,7.4,87.85,86.64,86.64,0,0,1-13.37,42.35,37.77,37.77,0,0,1-9.4,9.26,35.93,35.93,0,0,1-18.41,5.87,19.73,19.73,0,0,0,1,9.84,45.66,45.66,0,0,0,22.91-7.64,46.73,46.73,0,0,0,11.6-11.32,100.41,100.41,0,0,0,15.81-52.8A319.25,319.25,0,0,0,3507.61,1297.17Zm-143,88.79c-101.48-125.58-244.34-495.07-268.69-559.22l-.52-1.39c2.13.45,4.26.9,6.39,1.39h36.05a338,338,0,0,0-49.24-12.6,4.86,4.86,0,0,0-5.64,3.94,4.76,4.76,0,0,0,.23,2.56c.37,1,1.14,3.08,2.28,6.1,21.39,56.79,172.71,452.69,279.14,574.25a153.5,153.5,0,0,0,28.47,26.37c2.78,1.89,5.53,3.66,8.24,5.34l11-4.8q-6.66-3.83-13.75-8.61a166.43,166.43,0,0,1-33.93-33.33Z" transform="translate(-76 -292.15)"/></g></g></g></g></g><g id="women"><g id="Body_2" data-name="Body 2"><g id="_1-2" data-name=" 1-2"><g id="Group_6832" data-name="Group 6832"><g id="Group_6817" data-name="Group 6817"><path id="Path_5730" data-name="Path 5730" class="cls-12" d="M1359.37,3469.43l-3.17,65.08a17.12,17.12,0,0,1-13.18,16.16A483.3,483.3,0,0,0,1094.18,3700a17.59,17.59,0,0,0,11.73,29.52l83.66.94q56.19.61,112.4,1.1,61.18.54,122.34.84,56.78.26,113.54.15c28.64-.1,57.29-.25,85.92-1,11.38-.3,18.48-1.6,29.83-2.31,12.57-.78,10.05-18.83,9.65-26.34-.83-15.56-1.81-31.12-2.8-46.67-2.55-39.71-5.27-79.4-7.8-119.11-1.48-23.3-3-46.6-4-69.91a16.9,16.9,0,0,0-16.64-16.58l-256.2,2.17A17,17,0,0,0,1359.37,3469.43Z" transform="translate(-76 -292.15)"/></g><g id="Group_6818" data-name="Group 6818"><path id="Path_5731" data-name="Path 5731" class="cls-13" d="M1105.88,3729.56c28.17.32,56.31,1.2,84.47,2.05,37.77,1.15,75.53,2.41,113.3,3.57,41.06,1.27,82.13,2.46,123.17,3.33,38,.83,76.09,1.47,114.13,1.42,28.7,0,57.48-.23,86.12-2.27,12.6-.9,33.58-.18,38.55-8.87,4.59-8,2.38-23,1.74-33.87-1.2-20.48-3.19-40.92-5.16-61.35-4.12-42.57-8.79-85.13-11.46-127.83a2.15,2.15,0,0,0-2.28-2l-.31,0c-36.74,7.49-75.47,48.73-90.4,66.1a51,51,0,0,1-18.45,13.57c-76.11,32.88-157.66-8-195.8-32.26a2.07,2.07,0,0,0-1.55-.28A483.83,483.83,0,0,0,1094.13,3700a17.59,17.59,0,0,0,11.75,29.55Z" transform="translate(-76 -292.15)"/></g><g id="Group_6822" data-name="Group 6822"><g id="Group_6819" data-name="Group 6819"><path id="Path_5732" data-name="Path 5732" class="cls-14" d="M1301.73,3621.21h-.37c-28.74-2.49-45.65-36.88-46.35-38.34a4.16,4.16,0,1,1,7.38-3.83l.11.21c.15.32,15.58,31.59,39.59,33.67a4.17,4.17,0,0,1-.36,8.33h0Z" transform="translate(-76 -292.15)"/></g><g id="Group_6820" data-name="Group 6820"><path id="Path_5733" data-name="Path 5733" class="cls-14" d="M1261.08,3642.11h-.37c-28.73-2.5-45.64-36.88-46.34-38.34a4.16,4.16,0,1,1,7.38-3.83l.11.21c.15.32,15.57,31.58,39.58,33.66a4.17,4.17,0,0,1-.36,8.33h0Z" transform="translate(-76 -292.15)"/></g><g id="Group_6821" data-name="Group 6821"><path id="Path_5734" data-name="Path 5734" class="cls-14" d="M1347,3603.79h-.36c-28.74-2.5-45.65-36.88-46.35-38.33a4.16,4.16,0,0,1,7.49-3.63c.15.32,15.58,31.63,39.58,33.67a4.16,4.16,0,1,1-.36,8.32Z" transform="translate(-76 -292.15)"/></g></g><g id="Group_6823" data-name="Group 6823"><path id="Path_5735" data-name="Path 5735" class="cls-15" d="M1359.37,3469.43l-3.17,65.08a17.12,17.12,0,0,1-13.18,16.16A483.3,483.3,0,0,0,1094.18,3700a17.59,17.59,0,0,0,11.73,29.52l83.66.94q56.19.61,112.4,1.1,61.18.54,122.34.84,56.78.26,113.54.15c28.64-.1,57.29-.25,85.92-1,11.38-.3,18.48-1.6,29.83-2.31,12.57-.78,10.05-18.83,9.65-26.34-.83-15.56-1.81-31.12-2.8-46.67-2.55-39.71-5.27-79.4-7.8-119.11-1.48-23.3-3-46.6-4-69.91a16.9,16.9,0,0,0-16.64-16.58l-256.2,2.17A17,17,0,0,0,1359.37,3469.43Z" transform="translate(-76 -292.15)"/></g><g id="Group_6824" data-name="Group 6824"><path id="Path_5736" data-name="Path 5736" class="cls-4" d="M1105.88,3729.56c28.17.32,56.31,1.2,84.47,2.05,37.77,1.15,75.53,2.41,113.3,3.57,41.06,1.27,82.13,2.46,123.17,3.33,38,.83,76.09,1.47,114.13,1.42,28.7,0,57.48-.23,86.12-2.27,12.6-.9,33.58-.18,38.55-8.87,4.59-8,2.38-23,1.74-33.87-1.2-20.48-3.19-40.92-5.16-61.35-4.12-42.57-8.79-85.13-11.46-127.83a2.15,2.15,0,0,0-2.28-2l-.31,0c-52.63,10.75-74.36,70.21-124.35,85.68-61.19,18.94-128.53-5.41-180.3-38.28a2.07,2.07,0,0,0-1.55-.29A483.78,483.78,0,0,0,1094.13,3700a17.59,17.59,0,0,0,11.75,29.56Z" transform="translate(-76 -292.15)"/></g><g id="Group_6828" data-name="Group 6828"><g id="Group_6825" data-name="Group 6825"><path id="Path_5737" data-name="Path 5737" class="cls-14" d="M1301.73,3620.17h-.28c-28.15-2.49-44.81-36.32-45.51-37.76a3.12,3.12,0,1,1,5.53-2.89l.09.18c.15.32,15.81,32.11,40.43,34.25a3.12,3.12,0,0,1-.26,6.23Z" transform="translate(-76 -292.15)"/></g><g id="Group_6826" data-name="Group 6826"><path id="Path_5738" data-name="Path 5738" class="cls-14" d="M1261.08,3641.07h-.27c-28.16-2.45-44.82-36.33-45.51-37.77a3.12,3.12,0,1,1,5.53-2.89l.09.18c.15.32,15.81,32.12,40.43,34.25a3.12,3.12,0,0,1-.27,6.23Z" transform="translate(-76 -292.15)"/></g><g id="Group_6827" data-name="Group 6827"><path id="Path_5739" data-name="Path 5739" class="cls-14" d="M1347,3602.75h-.26c-28.17-2.45-44.82-36.32-45.52-37.76a3.12,3.12,0,1,1,5.53-2.89l.09.18c.15.32,15.81,32.11,40.43,34.24a3.12,3.12,0,0,1-.27,6.23Z" transform="translate(-76 -292.15)"/></g></g><g id="Group_6829" data-name="Group 6829"><path id="Path_5740" data-name="Path 5740" class="cls-14" d="M1535.13,3702.62a3.14,3.14,0,0,1-3.12-3c-3.49-98.13,78.34-155.41,79.17-156a3.13,3.13,0,0,1,3.54,5.16c-.84.54-79.84,56-76.46,150.59a3.13,3.13,0,0,1-3,3.24h-.13Z" transform="translate(-76 -292.15)"/></g><g id="Group_6830" data-name="Group 6830"><path id="Path_5741" data-name="Path 5741" class="cls-3" d="M1109.08,3738.81c109.94,7.74,195,2.5,294.19,4.65,50.25,1.09,104.59,2.26,154.84,3.09,19.43.33,95,4.11,107.53-17.73,4.59-8,2.39-23,1.75-33.88-.27-4.48-.68-9-1-13.44-92.05,13.82-477.21,5.08-556.91,2.38-5.14,5.23-10.25,10.53-15.31,16.16C1084.19,3711.11,1087.48,3737.29,1109.08,3738.81Z" transform="translate(-76 -292.15)"/></g><g id="Group_6831" data-name="Group 6831"><path id="Path_5742" data-name="Path 5742" class="cls-9" d="M1551.4,3506.69c44.85-21.38,76-29.86,97.64-32-.13-2.5-.29-4.94-.39-7.4a16.92,16.92,0,0,0-16.65-16.59l-256.2,2.17a17,17,0,0,0-16.4,16.53l-1.25,25.68A195.67,195.67,0,0,0,1551.4,3506.69Z" transform="translate(-76 -292.15)"/></g></g><g id="Group_6833" data-name="Group 6833"><path id="Path_5743" data-name="Path 5743" class="cls-6" d="M1456.12,2041.37c-40.7,50.56-204.31,323.39-164.52,1408.43a22.87,22.87,0,0,0,22.8,22.09h375.76a35.46,35.46,0,0,0,35.5-34.21c5.35-145.43,17.76-723.23,35.93-818.18,20-104.13,225-337.15,237.77-495.19a23.15,23.15,0,0,0-20-25L1477,2033.13A22.83,22.83,0,0,0,1456.12,2041.37Z" transform="translate(-76 -292.15)"/></g><g id="Group_6834" data-name="Group 6834"><rect id="Rectangle_8609" data-name="Rectangle 8609" class="cls-5" x="1201.35" y="3084.7" width="463.33" height="99.68" rx="21.44"/></g></g><g id="_2-2" data-name=" 2-2"><g id="Group_6850" data-name="Group 6850"><g id="Group_6835" data-name="Group 6835"><path id="Path_5744" data-name="Path 5744" class="cls-12" d="M1622.82,3180.45l46.41,45.77a17.12,17.12,0,0,1,3.27,20.59A483.4,483.4,0,0,0,1618,3531.9a17.59,17.59,0,0,0,29.83,10.94q28.23-30.87,56.45-61.75,37.9-41.49,75.74-83.06,41.18-45.26,82.18-90.67,38-42.15,75.77-84.54c19-21.42,38-42.88,56.53-64.72,7.36-8.68,11.12-14.83,18.16-23.77,7.79-9.9-7.34-20-13.21-24.76-12.15-9.76-24.41-19.39-36.67-29-31.29-24.57-62.7-49-94-73.56-18.3-14.41-36.71-28.82-54.76-43.59a16.91,16.91,0,0,0-23.47,1.37l-169.13,192.37A17,17,0,0,0,1622.82,3180.45Z" transform="translate(-76 -292.15)"/></g><g id="Group_6836" data-name="Group 6836"><path id="Path_5745" data-name="Path 5745" class="cls-13" d="M1647.83,3542.78c19-20.8,38.42-41.19,57.82-61.59q39-41.08,78.17-82.1,42.45-44.64,84.61-89.61c26-27.8,51.79-55.76,77.12-84.15,19.09-21.41,38.13-43,55.7-65.74,7.72-10,22.24-25.16,19.07-34.66-2.92-8.77-15.55-17.1-24.09-23.88-16.07-12.75-32.63-24.88-49.18-37-34.48-25.31-69.32-50.19-102.93-76.66a2.16,2.16,0,0,0-3,.33,1.59,1.59,0,0,0-.18.27c-18.89,32.39-14,88.74-11,111.44a51.35,51.35,0,0,1-2.17,22.82c-26.22,78.64-111.08,112.17-154.55,124.47a2.06,2.06,0,0,0-1.24,1,483.78,483.78,0,0,0-54,284.17,17.59,17.59,0,0,0,29.83,11Z" transform="translate(-76 -292.15)"/></g><g id="Group_6840" data-name="Group 6840"><g id="Group_6837" data-name="Group 6837"><path id="Path_5746" data-name="Path 5746" class="cls-14" d="M1661.4,3336.91a92.66,92.66,0,0,1-23.56-3.08,4.16,4.16,0,0,1,1.91-8.1l.38.11c.34.08,33.93,9.41,51.48-7.09a4.16,4.16,0,0,1,5.87,5.9l-.17.16A51.54,51.54,0,0,1,1661.4,3336.91Z" transform="translate(-76 -292.15)"/></g><g id="Group_6838" data-name="Group 6838"><path id="Path_5747" data-name="Path 5747" class="cls-14" d="M1649.91,3381.15a93.4,93.4,0,0,1-23.58-3.09,4.16,4.16,0,0,1,2.06-8.06l.23.06c.35.1,33.94,9.43,51.49-7.07a4.16,4.16,0,0,1,5.7,6.07h0A51.65,51.65,0,0,1,1649.91,3381.15Z" transform="translate(-76 -292.15)"/></g><g id="Group_6839" data-name="Group 6839"><path id="Path_5748" data-name="Path 5748" class="cls-14" d="M1678.6,3291.53a92.8,92.8,0,0,1-23.57-3.08,4.16,4.16,0,0,1,2.3-8c.34.1,33.93,9.43,51.47-7.07a4.16,4.16,0,1,1,5.71,6.06A51.58,51.58,0,0,1,1678.6,3291.53Z" transform="translate(-76 -292.15)"/></g></g><g id="Group_6841" data-name="Group 6841"><path id="Path_5749" data-name="Path 5749" class="cls-15" d="M1622.82,3180.45l46.41,45.77a17.12,17.12,0,0,1,3.27,20.59A483.4,483.4,0,0,0,1618,3531.9a17.59,17.59,0,0,0,29.83,10.94q28.23-30.87,56.45-61.75,37.9-41.49,75.74-83.06,41.18-45.26,82.18-90.67,38-42.15,75.77-84.54c19-21.42,38-42.88,56.53-64.72,7.36-8.68,11.12-14.83,18.16-23.77,7.79-9.9-7.34-20-13.21-24.76-12.15-9.76-24.41-19.39-36.67-29-31.29-24.57-62.7-49-94-73.56-18.3-14.41-36.71-28.82-54.76-43.59a16.91,16.91,0,0,0-23.47,1.37l-169.13,192.37A17,17,0,0,0,1622.82,3180.45Z" transform="translate(-76 -292.15)"/></g><g id="Group_6842" data-name="Group 6842"><path id="Path_5750" data-name="Path 5750" class="cls-4" d="M1647.83,3542.78c19-20.8,38.42-41.19,57.82-61.59q39-41.08,78.17-82.1,42.45-44.64,84.61-89.61c26-27.8,51.79-55.76,77.12-84.15,19.09-21.41,38.13-43,55.7-65.74,7.72-10,22.24-25.16,19.07-34.66-2.92-8.77-15.55-17.1-24.09-23.88-16.07-12.75-32.63-24.88-49.18-37-34.48-25.31-69.32-50.19-102.93-76.66a2.17,2.17,0,0,0-3,.35,1.44,1.44,0,0,0-.18.25c-27.05,46.39,2.8,102.23-19,149.81-26.64,58.26-89.7,92.21-148.7,108.92a2.06,2.06,0,0,0-1.24,1,483.78,483.78,0,0,0-54,284.17,17.59,17.59,0,0,0,29.83,11Z" transform="translate(-76 -292.15)"/></g><g id="Group_6846" data-name="Group 6846"><g id="Group_6843" data-name="Group 6843"><path id="Path_5751" data-name="Path 5751" class="cls-14" d="M1661.42,3335.88a92.09,92.09,0,0,1-23.3-3.05,3.12,3.12,0,0,1,1.72-6c.35.09,34.5,9.58,52.48-7.33a3.12,3.12,0,0,1,4.27,4.55A50.52,50.52,0,0,1,1661.42,3335.88Z" transform="translate(-76 -292.15)"/></g><g id="Group_6844" data-name="Group 6844"><path id="Path_5752" data-name="Path 5752" class="cls-14" d="M1649.93,3380.12a92.63,92.63,0,0,1-23.31-3.06,3.12,3.12,0,0,1,1.73-6c.34.09,34.49,9.61,52.48-7.31a3.12,3.12,0,0,1,4.28,4.55A50.66,50.66,0,0,1,1649.93,3380.12Z" transform="translate(-76 -292.15)"/></g><g id="Group_6845" data-name="Group 6845"><path id="Path_5753" data-name="Path 5753" class="cls-14" d="M1678.62,3290.5a92.17,92.17,0,0,1-23.31-3.05,3.12,3.12,0,1,1,1.72-6h0c.35.09,34.49,9.6,52.48-7.32a3.12,3.12,0,0,1,4.28,4.55A50.6,50.6,0,0,1,1678.62,3290.5Z" transform="translate(-76 -292.15)"/></g></g><g id="Group_6847" data-name="Group 6847"><path id="Path_5754" data-name="Path 5754" class="cls-14" d="M1911.5,3205.84a3.11,3.11,0,0,1-2-.72c-75.49-62.79-63.66-162-63.53-163a3.12,3.12,0,1,1,6.19.84c-.13,1-11.48,96.81,61.33,157.38a3.12,3.12,0,0,1-2,5.51Z" transform="translate(-76 -292.15)"/></g><g id="Group_6848" data-name="Group 6848"><path id="Path_5755" data-name="Path 5755" class="cls-3" d="M1647.83,3542.78c19-20.8,38.42-41.19,57.82-61.59q39-41.08,78.17-82.09,42.45-44.66,84.61-89.62c26-27.8,51.79-55.76,77.12-84.15,19.09-21.41,38.13-43,55.7-65.74,7.72-10,22.24-25.16,19.07-34.66-2.92-8.77-15.55-17.1-24.09-23.88-3.52-2.78-7.12-5.47-10.69-8.2-51,77.84-314.26,359.17-369.38,416.79.48,7.31,1,14.66,1.84,22.19a17.59,17.59,0,0,0,29.83,11Z" transform="translate(-76 -292.15)"/></g><g id="Group_6849" data-name="Group 6849"><path id="Path_5756" data-name="Path 5756" class="cls-9" d="M1778.6,3062.12c14-47.69,28.42-76.57,41.21-94.13-1.92-1.55-3.86-3.08-5.78-4.64a16.91,16.91,0,0,0-23.47,1.37l-169.13,192.43a17,17,0,0,0,1.39,23.24l18.31,18.05A195.68,195.68,0,0,0,1778.6,3062.12Z" transform="translate(-76 -292.15)"/></g></g><g id="Group_6856" data-name="Group 6856"><g id="Group_6851" data-name="Group 6851"><path id="Path_5757" data-name="Path 5757" class="cls-6" d="M1449.8,2054.27c-114.15,113.37-233.68,217.27-347.82,330.65-46.39,46.08-88.89,106.75-81.29,178.84,7.71,73.17,53.92,136.2,100.6,188.54,129.5,145.23,310.38,319.33,381.1,386.49a48,48,0,0,0,62.53,3.08l237.64-184.46a52.62,52.62,0,0,0,3.33-80.34l-278.06-255.59a18.23,18.23,0,0,1,1.8-28.3c87.95-61.8,457.27-333.58,445.44-531.46a18,18,0,0,0-18.17-16.64L1462.47,2049A18.13,18.13,0,0,0,1449.8,2054.27Z" transform="translate(-76 -292.15)"/></g><g id="Group_6852" data-name="Group 6852"><path id="Path_5758" data-name="Path 5758" class="cls-5" d="M1666.51,3038.63a4.2,4.2,0,0,1-3-1.26c-1.85-1.88-186.58-190.25-331.61-335.23-68.24-68.25-75.83-127.74-70.16-165.62a138.32,138.32,0,0,1,44.18-80.47l426.76-391.55a4.16,4.16,0,1,1,5.85,5.92l-.22.21-426.77,391.58a129.9,129.9,0,0,0-41.56,75.57c-7.75,51.6,15.71,106.39,67.8,158.48,145.07,145,329.82,333.41,331.67,335.3a4.16,4.16,0,0,1-3,7.07Z" transform="translate(-76 -292.15)"/></g><g id="Group_6853" data-name="Group 6853"><path id="Path_5759" data-name="Path 5759" class="cls-5" d="M1515.73,3130.27l278.92-242.72a21.35,21.35,0,0,1,30.11,2.08l.12.15,34.51,40.09a21.82,21.82,0,0,1-1.91,30.4L1581.59,3208a21.35,21.35,0,0,1-30.15-1.61l-.58-.67-37.51-45.12A21.79,21.79,0,0,1,1515.73,3130.27Z" transform="translate(-76 -292.15)"/></g><g id="Group_6854" data-name="Group 6854"><path id="Path_5760" data-name="Path 5760" class="cls-6" d="M1558.32,3172.92a4.17,4.17,0,0,1-2.76-7.28l266.8-237.09a4.17,4.17,0,1,1,5.53,6.23l-266.84,237.09A4.15,4.15,0,0,1,1558.32,3172.92Z" transform="translate(-76 -292.15)"/></g><g id="Group_6855" data-name="Group 6855"><path id="Path_5761" data-name="Path 5761" class="cls-5" d="M1390.85,2416.17a4.16,4.16,0,0,1-2.75-7.29l22.62-19.8a4.16,4.16,0,0,1,5.72,6.05l-.24.21-22.62,19.8A4.15,4.15,0,0,1,1390.85,2416.17Zm51.85-49.73a4.16,4.16,0,0,1-2.85-7.2l26.7-25a4.16,4.16,0,1,1,5.94,5.82,2.23,2.23,0,0,1-.27.26l-26.69,25a4.2,4.2,0,0,1-2.83,1.13Zm52-48.2a4.17,4.17,0,0,1-2.84-7.2l26.69-25a4.17,4.17,0,0,1,5.84,5.94l-.15.14-26.7,25a4.2,4.2,0,0,1-2.84,1.11Zm59.54-50.63a4.16,4.16,0,0,1-2.92-7.13l25.16-24.77a4.16,4.16,0,0,1,5.82,5.93l-25.16,24.78a4.17,4.17,0,0,1-2.9,1.19Zm51.85-49.73a4.16,4.16,0,0,1-2.91-7.13l25.16-24.77a4.16,4.16,0,1,1,6.15,5.6,3.34,3.34,0,0,1-.33.32L1609,2216.7a4.18,4.18,0,0,1-2.92,1.18Zm53.39-49.94a4.16,4.16,0,0,1-2.86-7.18l28-26.67a4.17,4.17,0,0,1,5.75,6l-28.06,26.63a4.17,4.17,0,0,1-2.87,1.22Z" transform="translate(-76 -292.15)"/></g></g><g id="Group_6859" data-name="Group 6859"><g id="Group_6857" data-name="Group 6857"><path id="Path_5762" data-name="Path 5762" class="cls-16" d="M1738.91,3006.8l-174,135.07a48,48,0,0,1-62.53-3.08C1459.52,3098.07,1376.16,3018,1288.3,2929c-.11,3.82-.21,7.69-.32,11.53,85.61,86.61,166.26,164,208.68,204.31a56.07,56.07,0,0,0,38.78,15.47,56.66,56.66,0,0,0,34.58-11.85l168.53-130.82C1738.66,3014,1738.79,3010.41,1738.91,3006.8Z" transform="translate(-76 -292.15)"/></g><g id="Group_6858" data-name="Group 6858"><path id="Path_5763" data-name="Path 5763" class="cls-16" d="M1534.4,2600a2185.69,2185.69,0,0,0,261.2-215.55c111.19-109.63,173.32-205.1,185.59-284.64-.61-.12-1.19-.34-1.83-.42l-6.28-.83c-30.06,193.3-360.89,436.61-443.5,494.66a18.15,18.15,0,0,0-1.8,28.29l218.44,200.76c.17-3.64.34-7.23.52-10.82l-213.28-196.1a9.89,9.89,0,0,1,1-15.35Z" transform="translate(-76 -292.15)"/></g></g></g></g><g id="Body_1" data-name="Body 1"><g id="Group_6860" data-name="Group 6860"><path id="Path_5764" data-name="Path 5764" class="cls-17" d="M1762.61,1328.68c-11.74-20.31-67.27,2.6-130.18,38.92s-104.4,82.23-92.68,102.55,72.24,7.33,135.15-29S1774.33,1349,1762.61,1328.68Z" transform="translate(-76 -292.15)"/></g><g id="Group_6861" data-name="Group 6861"><path id="Path_5765" data-name="Path 5765" class="cls-15" d="M1685.57,1175.39l61.93,164.12s-41.8,134.71-199.74,131.61c0,0,17-120.77,6.19-190.45Z" transform="translate(-76 -292.15)"/></g><g id="Group_6862" data-name="Group 6862"><path id="Path_5766" data-name="Path 5766" class="cls-10" d="M1749.51,1327.94c-12.36,27.72-54,114.18-206.34,126a7.55,7.55,0,0,0-6.65,5.11c-13.45,40.71-107.28,335.68-93.22,599.6a9,9,0,0,0,6.48,8.16c50.7,14.61,403.29,112.54,544.71,53.15a8.7,8.7,0,0,0,3.77-3c18.6-26.22,199.93-296.35-28.48-562.06l-209.59-228.65a6.47,6.47,0,0,0-10.68,1.72Z" transform="translate(-76 -292.15)"/></g><g id="Group_6863" data-name="Group 6863"><path id="Path_5767" data-name="Path 5767" class="cls-18" d="M1786.14,1830.88a4.16,4.16,0,0,1-1.32-8.12c19.31-6.42,22.9-50.68,10.12-124.61a1164.24,1164.24,0,0,0-27-115.58,4.16,4.16,0,1,1,8-2.37c7,23.69,67.09,232,11.55,250.46A4.25,4.25,0,0,1,1786.14,1830.88Z" transform="translate(-76 -292.15)"/></g><g id="Group_6867" data-name="Group 6867"><g id="Group_6866" data-name="Group 6866"><g id="Group_6864" data-name="Group 6864"><rect id="Rectangle_8610" data-name="Rectangle 8610" class="cls-19" x="1156.52" y="1465.33" width="40.54" height="370.15" rx="11.39" transform="translate(-853.5 820.25) rotate(-39.12)"/></g><g id="Group_6865" data-name="Group 6865"><path id="Path_5768" data-name="Path 5768" class="cls-15" d="M1960.58,1823.62a10.85,10.85,0,0,0-4.87-4c-18.22-7.54-121.91-30.54-326.82-19.52-56.6,3-115.34,6.15-171.54-3.24-47.34-7.92-77.82-43.18-114.57-70.74-23-17.27-77.06-64.61-108.78-47.44-26.88,14.58,77.18,83.8,63.69,99.74-8.07,9.55-54-16.28-109-86-13.76-17.48-20.08-32.37-32-36.11-7.68-2.41-15.17-4.16-18.23,3.33a123.77,123.77,0,0,0,21.3,123.82c42.56,52.32,105.18,87.87,150.29,91.76,100.2,8.62,165.69,22.74,289.54,68.13,120.32,44.06,411.08,105.22,457.52,33.86a10.93,10.93,0,0,0-.27-12.07Z" transform="translate(-76 -292.15)"/></g></g></g><g id="Group_6868" data-name="Group 6868"><path id="Path_5769" data-name="Path 5769" class="cls-9" d="M2036.43,1935.12c-157.12,77.4-303.78,19.67-421.71-23.1-118.44-43-169.54-19.74-169.54-19.74l-.92,1.76a1383.64,1383.64,0,0,1,155.37,49.34c120.32,44.07,411.07,105.22,457.51,33.87a10.94,10.94,0,0,0-.26-12.07Z" transform="translate(-76 -292.15)"/></g><g id="Group_6869" data-name="Group 6869" class="cls-20"><path id="Path_5770" data-name="Path 5770" class="cls-21" d="M1778.37,1386.1a8.15,8.15,0,1,1-8.08-9.15A8.67,8.67,0,0,1,1778.37,1386.1Zm-44.81,10.72a4.62,4.62,0,1,0,4,5.15,5.46,5.46,0,0,0,0-.57,4.33,4.33,0,0,0-4-4.6Zm-26,20.91a2.31,2.31,0,1,0,2,2.57,2.62,2.62,0,0,0,0-.28A2.17,2.17,0,0,0,1707.51,1417.73Zm101.12,51.18a9.27,9.27,0,1,0,8.07,9.16,8.68,8.68,0,0,0-8-9.15Zm46.45,38.6a8.14,8.14,0,1,1-8.08-9.16,8.68,8.68,0,0,1,8.11,9.16Zm-172.28,10.81a8.14,8.14,0,1,1-8.07-9.15,8.67,8.67,0,0,1,8.07,9.18Zm267.87,144.82a8.14,8.14,0,1,1-8.07-9.16,8.68,8.68,0,0,1,8.07,9.14ZM1934.42,1753a8.15,8.15,0,1,1-8.08-9.16,8.68,8.68,0,0,1,8.08,9.14Zm99.09-89.06a8.15,8.15,0,1,1-8.08-9.15,8.69,8.69,0,0,1,8.09,9.16Zm-5.41,160.26A8.15,8.15,0,1,1,2020,1815a8.67,8.67,0,0,1,8.08,9.15Zm-437.42-92.9a8.15,8.15,0,1,1-8.08-9.16,8.69,8.69,0,0,1,8.08,9.16Zm165.68,34.06a8.15,8.15,0,1,1-8.08-9.15,8.68,8.68,0,0,1,8.08,9.15Zm-47.87-73.52a8.15,8.15,0,1,1-8.08-9.15,8.67,8.67,0,0,1,8.08,9.15Zm-92-86a8.15,8.15,0,1,1-8.08-9.15A8.67,8.67,0,0,1,1616.46,1605.82ZM1531.57,1632a8.15,8.15,0,1,1-8.08-9.15,8.67,8.67,0,0,1,8.06,9.16Zm-33.29,367.61a8.14,8.14,0,1,1-8.08-9.15,8.68,8.68,0,0,1,8.08,9.16Zm148.14,66.86a8.14,8.14,0,1,1-8.07-9.16,8.69,8.69,0,0,1,8.07,9.16Zm69.68-13.94a8.14,8.14,0,1,1-8.07-9.15,8.67,8.67,0,0,1,8.06,9.16Zm-98.1-93.77a8.15,8.15,0,1,1-8.08-9.15,8.67,8.67,0,0,1,8.07,9.16Zm-145.77-35.52a8.14,8.14,0,1,1-8.08-9.15,8.67,8.67,0,0,1,8.07,9.16Zm358.29,115.69a8.15,8.15,0,1,1-8.08-9.16,8.67,8.67,0,0,1,8.07,9.21Zm141.42,55.6a8.14,8.14,0,1,1-8.08-9.16,8.69,8.69,0,0,1,8.07,9.21Zm34.77-62.49a8.14,8.14,0,1,1-8.07-9.15,8.67,8.67,0,0,1,8.06,9.2ZM1492.8,1781.53a8.14,8.14,0,1,1-8.07-9.15,8.66,8.66,0,0,1,8.06,9.2Zm62.68-292.5a8.14,8.14,0,1,1-8.07-9.16,8.69,8.69,0,0,1,8.07,9.2ZM1826,1657.66a8.15,8.15,0,1,1-8.08-9.15,8.67,8.67,0,0,1,8.07,9.19Zm24.09-102.72a8.15,8.15,0,1,1-8.08-9.16,8.67,8.67,0,0,1,8.07,9.2Zm-68.64-128.57a4.07,4.07,0,1,1-4-4.59,4.34,4.34,0,0,1,4,4.63h0ZM1954.38,1588a4.07,4.07,0,1,1-4-4.57,4.33,4.33,0,0,1,4,4.61Zm102,165.62a4.07,4.07,0,1,1-4-4.58,4.33,4.33,0,0,1,4,4.62h0Zm-85,31.8a4.07,4.07,0,1,1-4-4.57,4.34,4.34,0,0,1,4,4.61ZM1731,1447.88a2,2,0,1,1-2-2.29,2.18,2.18,0,0,1,2,2.32h0Zm-72.77-.83a2,2,0,1,1-2-2.29,2.18,2.18,0,0,1,2,2.32h0Zm14.7,23.25a2,2,0,1,1-2-2.29,2.16,2.16,0,0,1,2,2.31v0ZM1902,1562.43a2,2,0,1,1-2-2.28,2.17,2.17,0,0,1,2,2.31v0Zm-33,103a2,2,0,1,1-2-2.29,2.16,2.16,0,0,1,2,2.32h0Zm16.26,48a2,2,0,1,1-2-2.3,2.17,2.17,0,0,1,2,2.32v0Zm-100.18-2.33a2,2,0,1,1-2-2.29,2.17,2.17,0,0,1,2,2.32v0Zm65,37.13a2,2,0,1,1-2-2.29,2.18,2.18,0,0,1,2,2.32h0Zm-116.91,265.61a2,2,0,1,1-2-2.29,2.17,2.17,0,0,1,2,2.32h0Zm-83.61-40.32a2,2,0,1,1-2-2.29,2.16,2.16,0,0,1,2,2.31v0Zm10.06,58.09a2,2,0,1,1-2-2.28,2.18,2.18,0,0,1,2,2.33Zm-60.68,17a2,2,0,1,1-2-2.3,2.19,2.19,0,0,1,2,2.32v0Zm14.7,43.35a2,2,0,1,1-2-2.29,2.17,2.17,0,0,1,2,2.32h0Zm-51.87-20.1a2,2,0,1,1-4-.5,2,2,0,0,1,2-1.78A2.18,2.18,0,0,1,1561.87,2071.88Zm41.33-75.83a2,2,0,1,1-2-2.3,2.17,2.17,0,0,1,2,2.31h0Zm-44.43-13.19a2,2,0,1,1-2-2.3,2.17,2.17,0,0,1,2,2.27Zm102.49-189.68a2,2,0,1,1-2-2.29,2.17,2.17,0,0,1,2,2.3Zm-137.32,217.55a2,2,0,1,1-2-2.3,2.16,2.16,0,0,1,2,2.31Zm-49.54,49.54a2,2,0,1,1-2-2.28,2.16,2.16,0,0,1,2,2.29Zm-9-92.15a2,2,0,1,1-2-2.3,2.17,2.17,0,0,1,2,2.31Zm91.65-26.3a2,2,0,1,1-2-2.29,2.17,2.17,0,0,1,2,2.3Zm270.67,138.61a2,2,0,1,1-2-2.29,2.17,2.17,0,0,1,2,2.3Zm-31.28,36.4a2,2,0,1,1-2-2.3A2.17,2.17,0,0,1,1796.45,2116.83Zm63.47-91.36a2,2,0,1,1-2-2.29,2.16,2.16,0,0,1,2,2.26Zm-84.06,6.19a2,2,0,1,1-2-2.29,2.18,2.18,0,0,1,2,2.27Zm218.33,31.74a2,2,0,1,1-2-2.29,2.18,2.18,0,0,1,2,2.27Zm7.74,36.39a2,2,0,1,1-2-2.29,2.2,2.2,0,0,1,2,2.26Zm-235.49-594.58a4.07,4.07,0,1,1-4-4.58,4.34,4.34,0,0,1,4,4.55Zm167.84,31a4.07,4.07,0,1,1-4-4.58,4.33,4.33,0,0,1,4,4.55Zm-49.39-49.55a4.07,4.07,0,1,1-4-4.58,4.34,4.34,0,0,1,4,4.56Zm1.38,47.17a4.07,4.07,0,1,1-4-4.59,4.34,4.34,0,0,1,4,4.56Zm-52-89.75a4.07,4.07,0,1,1-4-4.58,4.34,4.34,0,0,1,4,4.56ZM1846,1627.53a4.07,4.07,0,1,1-4-4.58,4.33,4.33,0,0,1,4,4.56Zm-41-31a4.07,4.07,0,1,1-4-4.58,4.33,4.33,0,0,1,4,4.55Zm256.25,272.51a4.07,4.07,0,1,1-4-4.58,4.34,4.34,0,0,1,4,4.55Zm-70.45-147.93a4.07,4.07,0,1,1-4-4.58,4.33,4.33,0,0,1,4,4.55Zm-45.68,339.16a4.07,4.07,0,1,1-4-4.59,4.34,4.34,0,0,1,4,4.56Zm-73.54,47.34a4.07,4.07,0,1,1-4-4.57,4.33,4.33,0,0,1,4,4.55Zm65,9.16a4.07,4.07,0,1,1-4-4.59,4.34,4.34,0,0,1,4,4.61Zm-148-34.84a4.07,4.07,0,1,1-4-4.58,4.32,4.32,0,0,1,4,4.57Zm-63.15,16.25a4.07,4.07,0,1,1-4-4.58,4.35,4.35,0,0,1,4,4.58Zm-53.42-5.41a4.07,4.07,0,1,1-4-4.59,4.34,4.34,0,0,1,4,4.58Zm-33.29-75.87a4.07,4.07,0,1,1-4-4.59,4.34,4.34,0,0,1,4,4.61Zm403.19-.78a4.07,4.07,0,1,1-4-4.58,4.32,4.32,0,0,1,4,4.54Zm-151,27.1a4.07,4.07,0,1,1-4-4.58,4.32,4.32,0,0,1,4,4.57Zm-206.71-44.94a4.07,4.07,0,1,1-4-4.58,4.33,4.33,0,0,1,4,4.61Zm-112.86,24a4.07,4.07,0,1,1-4-4.58,4.33,4.33,0,0,1,4,4.61Zm-102.2,4.65a4.07,4.07,0,1,1-4-4.59,4.33,4.33,0,0,1,4,4.61Zm41.62-72.07a4.07,4.07,0,1,1-4-4.57,4.34,4.34,0,0,1,4,4.6Zm-4.65,89.1a4.07,4.07,0,1,1-4-4.58,4.33,4.33,0,0,1,4,4.61Zm289.55-479.28a4.07,4.07,0,1,1-4-4.59,4.33,4.33,0,0,1,4,4.61h0Zm-42,53.48a4.07,4.07,0,1,1-4-4.59,4.33,4.33,0,0,1,4,4.61ZM1661,1653.74a4.07,4.07,0,1,1-4-4.58,4.33,4.33,0,0,1,4,4.61Zm24.77-72.7a4.07,4.07,0,1,1-4-4.59,4.32,4.32,0,0,1,4,4.6h0Zm13.17,44.11a4.07,4.07,0,1,1-4.05-4.59,4.34,4.34,0,0,1,4.05,4.62h0Zm26.36-79.71a4.07,4.07,0,1,1-4-4.59,4.33,4.33,0,0,1,4,4.62h0Zm12.61-59.18a4.07,4.07,0,1,1-4-4.59,4.33,4.33,0,0,1,4,4.62h0ZM1630,1532.86a4.07,4.07,0,1,1-4-4.58,4.34,4.34,0,0,1,4,4.61v0Zm18.06,41.83a4.07,4.07,0,1,1-4-4.58,4.34,4.34,0,0,1,4,4.62h0Zm-9.33-88.71a4.07,4.07,0,1,1-4-4.59A4.33,4.33,0,0,1,1638.68,1486Zm-27.38-19.69a4.07,4.07,0,1,1-4-4.58,4.34,4.34,0,0,1,4,4.54Zm-22.56,36.62a4.07,4.07,0,1,1-4-4.58,4.34,4.34,0,0,1,4,4.56Zm-39.65,40.68a4.07,4.07,0,1,1-4-4.58,4.33,4.33,0,0,1,4,4.57Zm35.57,12.91a4.07,4.07,0,1,1-4-4.59,4.33,4.33,0,0,1,4,4.57Zm-27.08,30.2a4.07,4.07,0,1,1-4-4.58,4.33,4.33,0,0,1,4,4.56Zm-33.29-6.66a4.07,4.07,0,1,1-4-4.58,4.32,4.32,0,0,1,4,4.56Zm51.74,60.63a4.07,4.07,0,1,1-4-4.59,4.34,4.34,0,0,1,4,4.6Zm-72.77,36a4.07,4.07,0,1,1-4-4.58,4.32,4.32,0,0,1,4,4.59Zm-10.45,50.71a4.07,4.07,0,1,1-4-4.58,4.32,4.32,0,0,1,4,4.59Zm51.26,37.94a4.07,4.07,0,1,1-4-4.58,4.33,4.33,0,0,1,4,4.58Zm80.39-76.21a4.07,4.07,0,1,1-4-4.59,4.33,4.33,0,0,1,4,4.59ZM1564.14,1678a4.07,4.07,0,1,1-4-4.58,4.33,4.33,0,0,1,4,4.59Zm-25.36,38.49a4.07,4.07,0,1,1-4-4.58,4.33,4.33,0,0,1,4,4.62Zm168.65-246.13a4.07,4.07,0,1,1-4-4.58,4.33,4.33,0,0,1,4,4.59Zm54.36,205.16a4.07,4.07,0,1,1-4-4.58,4.31,4.31,0,0,1,4,4.59Z" transform="translate(-76 -292.15)"/></g></g><g id="Head"><g id="Group_6870" data-name="Group 6870"><path id="Path_5771" data-name="Path 5771" class="cls-15" d="M1577.18,927.64c-30.5.35-53.35,11.38-78.72,30.25-56.45,42-72.41,113.26-68.38,180.33,12.39,204.38,139.35,187.35,195.1,128.52,65.36-69,130.06-227.61,42.64-310.43C1645.22,934.91,1606.5,927.31,1577.18,927.64Z" transform="translate(-76 -292.15)"/></g><g id="Group_6873" data-name="Group 6873"><g id="Group_6871" data-name="Group 6871"><path id="Path_5772" data-name="Path 5772" class="cls-4" d="M2551.11,388.8C2464.4,347,2295.61,360.93,2226,492.54c-29.27,55.3-66.82,119.36-137.53,110.8-90.12-10.91-208.46,12.74-256.82,98.43-31.62,56.05-10.48,157.58-82.55,185.6a141.61,141.61,0,0,0-57,46.14c-93-64.59-198.42-27.58-198.47-27.56A303.71,303.71,0,0,0,1388,964.55a129.35,129.35,0,0,0-45.45,92.77c-.55,27.15,8.73,54.1,38.54,59.09,38.91,6.51,87-22.1,104.32-56.53a7,7,0,0,1,12.4-.59c17.31,30.11,64,97.11,128.1,79,0,0,36.39-15.49,50.33-37.17l-2.32,48.08c-.92,19.25-9.38,54.39,8.12,69.6,13.36,11.65,36.94-12.36,46.84-23.23,27.68-30.35,44.49-88,35.7-144.87,34.12,2.49,87.55,4.74,165.62,4,157.94-1.54,182.71-120.77,255.5-241.54s157.94-123.88,253.93-88.26,229.16-15.48,257-113S2637.82,430.61,2551.11,388.8Z" transform="translate(-76 -292.15)"/></g><g id="Group_6872" data-name="Group 6872"><path id="Path_5773" data-name="Path 5773" class="cls-6" d="M1790.68,1052.24c-10-94.17-57.54-127.53-81-138.38a196.48,196.48,0,0,0-17.6,19.66c69.18,66.27,72.59,117.11,72.59,117.11C1772.29,1051.19,1781,1051.74,1790.68,1052.24Z" transform="translate(-76 -292.15)"/></g></g><g id="Group_6874" data-name="Group 6874"><path id="Path_5774" data-name="Path 5774" class="cls-15" d="M1697,1147.3c-1.32,31.68-13.7,52-34.37,51.6s-37-24.55-36.42-53.94,17.77-52.92,38.45-52.53S1698.24,1117.89,1697,1147.3Z" transform="translate(-76 -292.15)"/></g><g id="Group_6875" data-name="Group 6875"><path id="Path_5775" data-name="Path 5775" class="cls-9" d="M1673.39,1162.51c-.21,0-.42,0-.62,0a28.62,28.62,0,0,1-18.56-11.91,29.6,29.6,0,0,1-1.4-25.42,4.16,4.16,0,1,1,7.94,2.48l0,.07a21.85,21.85,0,0,0,.52,18.42,20.28,20.28,0,0,0,12.78,8.13,4.16,4.16,0,0,1-.64,8.27Z" transform="translate(-76 -292.15)"/></g><g id="Group_6877" data-name="Group 6877"><g id="Group_6876" data-name="Group 6876"><ellipse id="Ellipse_532" data-name="Ellipse 532" class="cls-4" cx="1465.48" cy="1156.68" rx="10.54" ry="10.82" transform="translate(-135.52 -212.46) rotate(-3.05)"/></g></g><g id="Group_6878" data-name="Group 6878"><path id="Path_5776" data-name="Path 5776" class="cls-15" d="M1444.81,1141.72s-33.85,54-29.42,62.7,26,15.82,28.86,2.1Z" transform="translate(-76 -292.15)"/></g><g id="Group_6879" data-name="Group 6879"><path id="Path_5777" data-name="Path 5777" class="cls-9" d="M1490.08,1252.84a40.91,40.91,0,0,1-17.86-4.32,4.16,4.16,0,1,1,4-7.32,29.59,29.59,0,0,0,22.29,1.79,31.54,31.54,0,0,0,16.7-21,4.16,4.16,0,0,1,7.87,2.68,39.2,39.2,0,0,1-21.6,26A30.91,30.91,0,0,1,1490.08,1252.84Z" transform="translate(-76 -292.15)"/></g><g id="Group_6880" data-name="Group 6880"><path id="Path_5778" data-name="Path 5778" class="cls-9" d="M1559.12,1306a22.36,22.36,0,0,1-3.27-.21,4.16,4.16,0,1,1,1.39-8.21h0c.47.08,24.9,3.1,65.12-33.88a4.16,4.16,0,0,1,5.63,6.13C1592.28,1302.63,1567.69,1306,1559.12,1306Z" transform="translate(-76 -292.15)"/></g></g></g></g></svg>