<?xml version="1.0" encoding="UTF-8"?>
<svg width="1788px" height="1275px" viewBox="0 0 1788 1275" version="1.1" xmlns="http://www.w3.org/2000/svg" xmlns:xlink="http://www.w3.org/1999/xlink">
    <!-- Generator: Sketch 52.6 (67491) - http://www.bohemiancoding.com/sketch -->
    <title>Ecommerce</title>
    <desc>Created with Sketch.</desc>
    <g id="ðŸž-Scenes" stroke="none" stroke-width="1" fill="none" fill-rule="evenodd">
        <g id="Ecommerce" transform="translate(-1106.000000, -564.000000)">
            <g transform="translate(1105.000000, 562.000000)" id="Comparing_prices">
                <g transform="translate(0.932000, 0.440000)">
                    <g id="Background" transform="translate(0.000000, 151.000000)" fill="#E3EEFF">
                        <path d="M943.517,1023.539 C1020.466,1026.48 1312.817,1037.657 1545.74,824.968 C1563.977,808.315 1808.85,577.851 1786.629,261.808 C1781.685,191.508 1774.458,88.697 1701.992,30.685 C1601.185,-50.015 1405.112,45.158 1181.15,147.874 C1012.042,225.433 990.142,259.574 888.176,271.574 C728.827,290.332 590.269,229.563 546.376,209.724 C377.4,133.358 357.458,46.553 230.614,37.195 C223.844,36.695 78.555,27.784 22.277,112.066 C-44.271,211.728 55.367,379.207 103.659,460.379 C156.985,550.013 426.949,1003.79 943.517,1023.539 Z" id="Path_177"></path>
                    </g>
                    <g id="Plant" transform="translate(991.000000, 582.000000)">
                        <path d="M494.959,139.052 C512.6,151.224 565.581,128.485 590.278,134.04 C597.522,135.669 605.043,138.04 610.028,143.54 C622.071,156.84 610.854,179.885 594.191,186.54 C577.528,193.195 558.809,189.164 541.039,186.69 C518.317,183.527 494.26,183.271 473.477,192.985 C470.341,194.451 467.166,196.262 465.357,199.214 C460.776,206.691 467.347,216.146 474.516,221.194 C497.762,237.564 528.384,236.961 556.285,242.427 C562.646,243.673 569.595,245.727 572.935,251.278 C576.186,256.678 574.886,263.69 572.335,269.459 C562.913,290.771 538.911,302.549 515.683,304.406 C492.455,306.263 469.447,300.04 446.795,294.575 C424.143,289.11 400.516,284.343 377.702,289.085 C367.242,291.258 355.022,301.794 361.459,310.32 C363.449,312.958 366.719,314.249 369.859,315.28 C407.335,327.592 449.332,320.449 486.296,334.223 C504.202,340.895 522.096,356.004 520.62,375.055 C519.653,387.51 510.251,398.086 499.107,403.732 C487.963,409.378 475.239,410.909 462.788,411.911 C424.760818,414.969371 386.514805,413.921994 348.712,408.787 C318.088,404.624 281.862,399.587 260.824,422.233 C256.064,427.357 252.452,433.966 252.556,440.958 C252.723,452.172 262.5,461.339 273.18,464.758 C283.86,468.177 295.371,467.202 306.575,466.685 C330.121373,465.599948 353.717627,466.714109 377.057,470.013 C388.692,471.659 401.283,474.433 408.649,483.59 C418.599,495.958 414.102,515.617 402.449,526.39 C390.796,537.163 374.2,540.751 358.349,541.644 C306.506,544.562 256.149,523.463 204.273,521.283 C192.773,520.8 180.285,521.592 171.429,528.943 C162.573,536.294 160.558,552.358 170.252,558.561 C173.942,560.922 178.481,561.431 182.839,561.878 L277.625,571.622 C288.705,572.761 300.678,574.299 308.68,582.045 C321.236,594.199 317.22,616.714 304.58,628.778 C291.94,640.842 273.713,644.791 256.352,646.788 C226.884,650.178 82.328,642.296 52.676,641.521 L34.735,625.894 C29.747,596.655 1.363,454.694 0.524,425.043 C0.029,407.574 1.344,388.974 11.485,374.743 C21.626,360.512 43.338,353.331 57.156,364.028 C65.962,370.847 69.189,382.479 71.893,393.283 C79.607,424.093 87.3206667,454.903667 95.034,485.715 C96.097,489.965 97.248,494.385 100.11,497.702 C107.63,506.414 123.242,502.131 129.258,492.32 C135.274,482.509 134.279,470.032 132.158,458.72 C122.615,407.68 94.558,360.843 90.07,309.113 C88.696,293.299 89.882,276.364 98.89,263.293 C107.898,250.222 126.717,242.971 140.375,251.061 C150.486,257.048 155.025,269.116 158.31,280.397 C164.898021,303.029316 169.360683,326.226788 171.64,349.688 C172.723,360.85 173.394,372.383 178.301,382.467 C183.208,392.551 193.673,400.924 204.801,399.493 C211.738,398.6 217.765,394.083 222.158,388.642 C241.574,364.595 231.437,329.455 222.958,299.736 C212.492822,263.049494 206.010749,225.34223 203.624,187.267 C202.844,174.799 202.547,161.986 206.549,150.153 C210.551,138.32 219.681,127.507 231.87,124.777 C250.516,120.6 268.02,136.163 277.17,152.936 C296.07,187.562 294.977,230.149 312.498,265.49 C313.965,268.451 315.709,271.505 318.598,273.1 C327.954,278.256 336.643,264.661 337.306,254 C338.751,230.743 330.668,208.035 322.035,186.391 C313.402,164.747 303.965,142.86 302.497,119.605 C301.029,96.35 309.268,70.915 329.021,58.555 C334.368,55.209 341.121,52.926 346.932,55.374 C352.905,57.889 355.924,64.474 358.063,70.593 C367.445,97.432 371.209,127.828 390.722,148.506 C396.74,154.884 407.034,160.042 413.782,154.443 C416.447,152.233 417.787,148.832 418.792,145.519 C425.448,123.566 421.77,99.789 415.403,77.75 C410.425,60.512 403.772,42.558 407.984,25.118 C412.196,7.678 433.41,-6.706 448.284,3.318 C454.442,7.469 457.854,14.576 460.499,21.518 C469.512,45.172 447.819,114.108 469.109,116.579 C473.309,117.066 494.081,103.984 494.437,70.545 C494.793,37.106 516.749,-4.932 549.009,24.38 C581.269,53.692 538.273,69.457 518.318,87.023 C498.363,104.589 486.999,133.559 494.959,139.052 Z" id="Path_179" fill="#A7CDF2"></path>
                        <path d="M47.583,630.117 L45.899,628.748 C47.954,626.22 252.668,374.777 358.499,274.905 C434.542,203.146 481.534,120.815 481.999,119.992 L483.888,121.06 C483.42,121.887 436.267,204.502 359.988,276.482 C254.261,376.257 49.637,627.59 47.583,630.117 Z" id="Path_180" fill="#FFFFFF"></path>
                    </g>
                    <g id="Plants" transform="translate(256.796000, 431.836000)">
                        <g id="_4" transform="translate(686.204000, 0.164000)">
                            <path d="M18.914,784.037 C18.914,784.037 -116.913,364.23 348.829,0.337 C348.829,0.337 433.013,540.624 18.914,784.037" id="Path_178" fill="#FF90C6"></path>
                            <rect id="Rectangle_44" fill="#FFFFFF" transform="translate(186.962895, 385.130522) rotate(-67.410996) translate(-186.962895, -385.130522) " x="-208.387979" y="384.045856" width="790.701747" height="2.16933262"></rect>
                        </g>
                        <g id="_3" transform="translate(0.000000, 583.000000)">
                            <path d="M0.363,25.453 C0.363,25.453 299.226,352.101 662.797,213.469 C662.796,213.47 466.238,-84.859 0.363,25.453 Z" id="Path_181" fill="#A7CDF2"></path>
                            <rect id="Rectangle_45" fill="#FFFFFF" transform="translate(329.005865, 116.298237) rotate(-74.331000) translate(-329.005865, -116.298237) " x="327.920865" y="-193.054763" width="2.17" height="618.706"></rect>
                        </g>
                        <g id="_2" transform="translate(338.000000, 3.000000)">
                            <path d="M0.841,0.225 C0.841,0.225 -26.949,597.937 326.553,793.166 C326.553,793.166 405.165,317.204 0.841,0.225 Z" id="Path_182" fill="#A7CDF2"></path>
                            <rect id="Rectangle_46" fill="#FFFFFF" transform="translate(169.499874, 404.412367) rotate(-21.982000) translate(-169.499874, -404.412367) " x="168.414874" y="21.7703665" width="2.17" height="765.284"></rect>
                        </g>
                        <g id="_1" transform="translate(80.000000, 264.000000)">
                            <path d="M478.161,546.266 C478.161,546.266 470.188,166.711 0,2.27373675e-13 C0,2.27373675e-13 82.215,463.277 478.161,546.266" id="Path_187" fill="#FF90C6"></path>
                            <rect id="Rectangle_47" fill="#FFFFFF" transform="translate(229.915032, 265.950018) rotate(-40.862406) translate(-229.915032, -265.950018) " x="228.830438" y="-63.9445322" width="2.16918827" height="659.7891"></rect>
                        </g>
                    </g>
                    <g id="Person" transform="translate(342.000000, 173.000000)">
                        <path d="M539.667,259.34 C519.885,261.121 518.241,279.409 495.178,285.382 C477.787,289.882 452.713,286.225 437.668,268.02 C423.161,250.468 421.907,224.148 432.243,207.255 C445.095,186.248 466.229,195.576 489.753,172.532 C504.531,158.055 499.511,151.118 520.135,111.767 C537.75,78.156 546.558,61.351 563.535,52.087 C592.844,36.097 629.664,50.748 646.002,58.598 C650.871,30.223 669.383,7.648 692.661,2.173 C731.568,-6.977 775.91,33.505 769.702,67.278 C766.076,87.001 745.45,103.141 719.788,109.596 C727.500121,126.652564 731.565552,145.131611 731.724,163.85 C731.775,197.959 717.808,210.459 726.298,228.955 C737.031,252.336 766.247,247.383 772.957,269.103 C778.171,285.983 766.986,309.885 751.257,315.762 C732.488,322.773 720.543,299.162 689.407,301.656 C668.446,303.336 668.007,314.505 649.259,314.677 C635.993,314.798 629.541,309.269 586.324,282.124 C552.707,261.011 547.5,258.634 539.667,259.34 Z" id="Path_183" fill="#FF90C6"></path>
                        <path d="M539.666,119.363 C539.666,119.363 466.966,272.363 564.623,285.382 L558.112,354.828 C558.112,354.828 563.538,400.402 604.771,400.402 C646.004,400.402 659.025,361.339 659.025,361.339 L652.515,249.575 C652.515,249.575 710.025,187.725 653.6,194.236 C653.6,194.236 655.77,163.854 610.2,164.936 C564.63,166.018 539.666,119.363 539.666,119.363 Z" id="Path_184" fill="#FFD5C0"></path>
                        <path d="M185.928,432.952 C185.928,432.952 170.737,400.4 162.056,391.719 C153.375,383.038 131.673,409.08 89.356,407.995 C47.039,406.91 5.804,394.974 1.464,389.549 C-2.876,384.124 -0.706,425.357 55.718,444.888 C112.142,464.419 132.759,434.037 147.95,469.845 C163.141,505.653 185.928,432.952 185.928,432.952 Z" id="Path_185" fill="#FFD5C0"></path>
                        <path d="M1025.428,432.952 C1025.428,432.952 1040.619,400.4 1049.3,391.719 C1057.981,383.038 1079.682,409.08 1122,407.995 C1164.318,406.91 1205.552,394.974 1209.892,389.549 C1214.232,384.124 1212.062,425.357 1155.638,444.888 C1099.214,464.419 1078.597,434.037 1063.406,469.845 C1048.215,505.653 1025.428,432.952 1025.428,432.952 Z" id="Path_186" fill="#FFD5C0"></path>
                        <g id="Group_116" transform="translate(128.504000, 341.806000)">
                            <path d="M305.909,29.297 C283.123,58.595 185.464,260.421 185.464,260.421 L59.594,84.637 L0.999,129.126 C0.999,129.126 160.508,393.889 196.316,393.889 C232.124,393.889 320.016,236.551 320.016,236.551 C365.589,182.295 390.546,17.361 305.909,29.297 Z" id="Path_188" fill="#404884"></path>
                            <path d="M647.251,29.297 C670.038,58.597 767.696,260.421 767.696,260.421 L893.566,84.637 L952.161,129.126 C952.161,129.126 792.651,393.889 756.851,393.889 C721.051,393.889 633.151,236.551 633.151,236.551 C587.573,182.295 562.616,17.361 647.251,29.297 Z" id="Path_189" fill="#404884"></path>
                            <path d="M603.627,424.231 C606.701,407.358 626.612,296.652 637.946,198.571 C643.826516,146.367147 647.085941,93.9012848 647.712,41.371 C647.709239,25.1139851 634.531015,11.9357605 618.274,11.933 C618.274,11.933 605.405,9.86 585.074,7.433 C556.656,4.058 513.653,-2.27373675e-13 470.847,-2.27373675e-13 C437.567,-2.27373675e-13 404.353,2.778 378.896,5.653 C351.584,8.735 333.181,11.936 333.181,11.936 C316.923985,11.9387605 303.745761,25.1169851 303.743,41.374 C304.437366,94.0123254 308.788176,146.538804 316.764,198.574 C331.593,293.157 357.764,399.503 362.631,418.955 C264.68,543.632 285.297,718.331 285.297,718.331 C293.978,788.862 677.014,758.479 674.844,721.586 C672.999,690.296 686.775,506.74 603.627,424.231 Z" id="Path_190" fill="#353B6E"></path>
                            <g id="Group_115" transform="translate(480.608000, 139.976000)" fill="#FF90C6">
                                <circle id="Ellipse_11" cx="8.681" cy="8.681" r="8.681"></circle>
                                <circle id="Ellipse_12" cx="8.681" cy="39.063" r="8.681"></circle>
                                <circle id="Ellipse_13" cx="8.681" cy="69.446" r="8.681"></circle>
                                <circle id="Ellipse_14" cx="8.681" cy="99.828" r="8.681"></circle>
                            </g>
                        </g>
                        <path d="M713.574,349.239 C697.786,361.381 617.793,470.932 617.793,470.932 C617.793,470.932 540.752,366.764 507.393,347.46 C532.849,344.584 568.234,338.551 601.514,338.551 C644.323,338.551 685.155,345.865 713.574,349.239 Z" id="Path_191" fill="#FFD5C0"></path>
                    </g>
                    <g id="Object" transform="translate(271.594000, 265.379000)">
                        <path d="M218.799,214.63 C219.44,213.957 220.062,213.269 220.687,212.583 C221.404,211.798 222.119,211.012 222.816,210.21 C223.423,209.51 224.016,208.796 224.603,208.083 C225.282,207.265 225.959,206.443 226.618,205.608 C227.189,204.884 227.743,204.149 228.298,203.408 C228.94,202.555 229.577,201.7 230.198,200.833 C230.733,200.083 231.254,199.326 231.773,198.565 C232.373,197.683 232.973,196.797 233.55,195.899 C234.05,195.128 234.534,194.349 235.016,193.567 C235.578,192.653 236.129333,191.733333 236.67,190.808 C237.13,190.017333 237.580667,189.221333 238.022,188.42 C238.542667,187.478 239.051667,186.529333 239.549,185.574 C239.970333,184.764667 240.383,183.950333 240.787,183.131 C241.264333,182.161 241.729,181.184333 242.181,180.201 C242.563,179.374333 242.936667,178.543333 243.302,177.708 C243.736,176.713 244.153,175.708 244.561,174.708 C244.903,173.863 245.241,173.017 245.561,172.165 C245.947,171.147 246.315,170.121 246.676,169.091 C246.976,168.232 247.276,167.373 247.56,166.506 C247.901,165.462 248.219,164.406 248.532,163.357 C248.793,162.487 249.053,161.618 249.294,160.74 C249.587,159.673 249.854,158.597 250.119,157.521 C250.336,156.642 250.556,155.764 250.754,154.879 C250.998,153.788 251.213,152.688 251.428,151.588 C251.602,150.703 251.781,149.819 251.936,148.927 C252.129,147.81 252.29,146.685 252.454,145.561 C252.583,144.674 252.721,143.79 252.832,142.898 C252.973,141.753 253.078,140.598 253.189,139.45 C253.272,138.566 253.37,137.685 253.436,136.796 C253.523,135.622 253.57,134.44 253.625,133.259 C253.664,132.383 253.725,131.511 253.742,130.632 C253.772,129.413 253.758,128.189 253.753,126.963 C253.753,126.114 253.766,125.268 253.745,124.417 C253.712,123.13 253.633,121.838 253.562,120.547 C253.519,119.747 253.497,118.954 253.438,118.154 C253.332,116.725 253.171,115.291 253.016,113.854 C252.943,113.187 252.898,112.523 252.816,111.854 C252.553333,109.75 252.238333,107.641667 251.871,105.529 C251.503667,103.416333 251.083,101.330667 250.609,99.272 C250.439,98.522 250.231,97.79 250.048,97.045 C249.727,95.745 249.415,94.434 249.055,93.145 C248.812,92.274 248.529,91.422 248.268,90.56 C247.923,89.424 247.591,88.282 247.218,87.16 C246.918,86.252 246.576,85.36 246.253,84.468 C245.874,83.418 245.508,82.361 245.104,81.326 C244.746,80.408 244.355,79.511 243.978,78.605 C243.566,77.615 243.163,76.623 242.726,75.647 C242.317,74.733 241.877,73.838 241.448,72.935 C241.001,71.995 240.559,71.051 240.091,70.127 C239.632,69.227 239.148,68.34 238.669,67.451 C238.19,66.562 237.709,65.651 237.205,64.773 C236.701,63.895 236.173,63.02 235.648,62.149 C235.123,61.278 234.616,60.43 234.08,59.587 C233.53,58.723 232.961,57.878 232.393,57.03 C231.842,56.21 231.293,55.388 230.724,54.582 C230.132,53.743 229.524,52.92 228.91,52.096 C228.327,51.312 227.746,50.529 227.146,49.76 C226.512,48.947 225.863,48.15 225.212,47.354 C224.597,46.605 223.982,45.854 223.351,45.125 C222.678,44.342 221.994,43.572 221.303,42.807 C220.659667,42.0943333 220.009667,41.388 219.353,40.688 C218.642333,39.9346667 217.922667,39.1923333 217.194,38.461 C216.521333,37.783 215.842333,37.1126667 215.157,36.45 C214.410333,35.7306667 213.655333,35.0213333 212.892,34.322 C212.192,33.6793333 211.485333,33.046 210.772,32.422 C209.992667,31.7386667 209.205667,31.064 208.411,30.398 C207.683,29.7913333 206.949667,29.1936667 206.211,28.605 C205.399,27.957 204.583,27.317 203.755,26.69 C203.002,26.118 202.24,25.56 201.474,25.007 C200.632,24.398 199.789,23.794 198.934,23.207 C198.154,22.671 197.364,22.152 196.574,21.635 C195.704,21.065 194.833,20.499 193.951,19.952 C193.151,19.452 192.335,18.974 191.52,18.495 C190.62,17.967 189.728,17.439 188.82,16.933 C187.994,16.474 187.158,16.033 186.32,15.593 C185.399,15.107 184.48,14.62 183.547,14.155 C182.7,13.734 181.839,13.336 180.982,12.933 C180.04,12.491 179.1,12.044 178.146,11.626 C177.276,11.243 176.393,10.887 175.514,10.526 C174.551,10.126 173.592,9.726 172.614,9.351 C171.725,9.009 170.824,8.697 169.925,8.376 C168.943,8.023 167.965,7.662 166.974,7.334 C166.065,7.034 165.142,6.765 164.226,6.484 C163.226,6.184 162.234,5.862 161.226,5.584 C160.3,5.327 159.364,5.104 158.426,4.868 C157.41,4.61 156.398,4.336 155.374,4.103 C154.433,3.889 153.482,3.715 152.534,3.522 C151.503,3.313 150.478,3.085 149.44,2.9 C148.484,2.731 147.518,2.6 146.557,2.457 C145.513,2.296 144.474,2.115 143.423,1.981 C142.602,1.881 141.77,1.814 140.946,1.725 C138.746,1.48833333 136.533333,1.31066667 134.308,1.192 C133.308,1.138 132.308,1.062 131.298,1.031 C130.251,1 129.198,1.016 128.145,1.01 C127.128,1.01 126.116,0.982 125.096,1.001 C124.036,1.022 122.97,1.088 121.907,1.134 C120.888,1.18 119.87,1.209 118.848,1.279 C117.777,1.353 116.703,1.47 115.631,1.572 C114.756,1.655 113.887,1.709 113.011,1.81 L113.011,1.828 C110.529,2.114 108.042,2.454 105.55,2.891 C36.8054603,14.9523467 -9.14534665,80.4584603 2.916,149.203 C14.9773467,217.94754 80.4834603,263.898347 149.228,251.837 C151.721,251.4 154.174,250.872 156.604,250.296 L156.604,250.312 C157.374,250.13 158.125,249.912 158.888,249.712 C160.033,249.418 161.182,249.137 162.312,248.812 C163.194,248.559 164.059,248.271 164.932,248 C166.048,247.655 167.171,247.323 168.271,246.949 C169.127,246.657 169.963,246.329 170.81,246.02 C171.904,245.62 173.01,245.238 174.086,244.81 C174.886,244.492 175.668,244.139 176.461,243.804 C178.764333,242.835333 181.031,241.804 183.261,240.71 C183.888,240.402 184.53,240.115 185.151,239.796 C186.038,239.341 186.897,238.848 187.769,238.372 C188.683,237.872 189.608,237.396 190.506,236.872 C191.346,236.389 192.159,235.872 192.983,235.372 C193.883,234.823 194.799,234.287 195.683,233.717 C196.488,233.198 197.27,232.649 198.061,232.117 C198.939,231.525 199.824,230.942 200.685,230.329 C201.458,229.778 202.206,229.199 202.965,228.629 C203.815,227.994 204.671,227.367 205.503,226.712 C206.244,226.128 206.961,225.521 207.688,224.921 C208.506,224.247 209.329,223.579 210.128,222.884 C210.838,222.269 211.528,221.632 212.219,221.001 C213.004,220.289 213.792,219.581 214.558,218.849 C215.233,218.204 215.887,217.541 216.547,216.882 C217.313,216.146 218.067,215.398 218.799,214.63 Z" id="Path_192" fill="#AC7DFD"></path>
                        <path d="M32.795,143.971 C26.0786309,105.706539 43.0740668,67.1640855 75.8560744,46.3165783 C108.638082,25.4690711 150.750515,26.4222552 182.555698,48.731646 C214.360881,71.0410369 229.595045,110.312984 221.154265,148.234374 C212.713485,186.155764 182.260103,215.258291 143.995,221.971 C91.749719,231.13508 41.9662527,196.215022 32.795,143.971 Z" id="Path_193" fill="#A7CDF2"></path>
                        <g id="Group_117" transform="translate(89.403000, 67.580000)" fill="#FFFFFF" fill-rule="nonzero">
                            <path d="M62.419,34.049 C61.1406945,33.0813971 59.7478277,32.275301 58.272,31.649 C56.2982593,30.7766731 54.2614697,30.0546207 52.179,29.489 C49.7558095,28.8297624 47.2834962,28.3666008 44.786,28.104 C42.116332,27.8150017 39.4247156,27.789211 36.75,28.027 L41.289,56.711 L44.008,56.847 C48.7552365,57.2032246 53.4782579,57.8302452 58.154,58.725 C62.0030325,59.4295553 65.7247143,60.7070821 69.195,62.515 C72.2486365,64.1593012 74.8781862,66.4910111 76.876,69.326 C79.0522929,72.6097786 80.4451136,76.3496271 80.947,80.257 C81.7563421,84.5659069 81.5346357,89.0051736 80.3,93.212 C79.1259314,96.8999032 77.1030721,100.260946 74.394,103.025 C71.5218899,105.923287 68.1364866,108.262959 64.41,109.925 C60.2856138,111.792705 55.9393879,113.125508 51.477,113.891 L53.777,128.443 L46.571,129.579 L44.228,114.757 C37.678803,115.356438 31.0779665,115.037688 24.617,113.81 C18.3379421,112.618691 12.2885718,110.435368 6.696,107.342 L11.659,92.925 C13.2060636,94.0845674 14.8842847,95.0579356 16.659,95.825 C19.0473958,96.9033826 21.5153751,97.7960275 24.041,98.495 C27.0012572,99.3258496 30.0182998,99.9391512 33.068,100.33 C36.3604495,100.770616 39.6862095,100.910193 43.004,100.747 L38.465,72.066 C37.884,71.971 37.278,71.898 36.656,71.854 C36.049838,71.8156679 35.4460434,71.7462432 34.847,71.646 C30.3233512,71.2191361 25.8281782,70.530987 21.384,69.585 C17.9006244,68.8813569 14.556236,67.6111649 11.484,65.825 C8.84288912,64.256024 6.58748892,62.114419 4.884,59.558 C3.06080456,56.6398261 1.88753311,53.3631927 1.444,49.951 C0.709051219,45.8219495 0.861084123,41.5837766 1.89,37.518 C2.88447269,33.8083728 4.66277409,30.3550922 7.105,27.391 C9.64442681,24.3331343 12.7301818,21.7739922 16.205,19.844 C20.0502884,17.7138042 24.1730968,16.1286265 28.455,15.134 L26.24,1.145 L33.44,-1.13686838e-13 L35.658,14 C41.4062435,13.4003706 47.2134787,13.727534 52.858,14.969 C57.9274817,16.0783583 62.8340473,17.8322875 67.458,20.188 L62.419,34.049 Z M17.26,44.889 C17.874,48.763 19.698,51.463 22.731,52.968 C25.764,54.473 30.168,55.53 35.946,56.133 L31.622,28.841 C26.032,30.0076667 22.084,31.981 19.778,34.761 C17.4581761,37.5864914 16.5334115,41.3061166 17.26,44.889 Z M64.584,84.551 C64.1701055,80.797827 61.7544711,77.5638395 58.273,76.102 C53.6389431,74.2718379 48.7688144,73.1079226 43.808,72.645 L48.15,100.076 C54.0486667,99.0493333 58.422,97.221 61.27,94.591 C64.0861199,92.0748261 65.3488845,88.2491906 64.584,84.551 Z" id="Path_194"></path>
                        </g>
                    </g>
                    <g id="Object-2" transform="translate(1341.490000, 291.421000)">
                        <path d="M218.799,214.63 C219.44,213.957 220.062,213.269 220.687,212.583 C221.404,211.797 222.119,211.012 222.816,210.21 C223.422,209.51 224.016,208.796 224.603,208.083 C225.282,207.265 225.959,206.443 226.618,205.608 C227.189,204.884 227.743,204.149 228.298,203.408 C228.94,202.555 229.577,201.7 230.198,200.833 C230.733,200.083 231.254,199.326 231.772,198.565 C232.372,197.683 232.972,196.796 233.549,195.899 C234.049,195.128 234.533,194.35 235.015,193.567 C235.577,192.653 236.128333,191.733333 236.669,190.808 C237.129,190.016667 237.579667,189.220667 238.021,188.42 C238.541667,187.478 239.050667,186.529333 239.548,185.574 C239.968667,184.764 240.381333,183.949667 240.786,183.131 C241.263333,182.161 241.728,181.184333 242.18,180.201 C242.562,179.374333 242.935667,178.543667 243.301,177.709 C243.735,176.714 244.152,175.709 244.56,174.709 C244.902,173.864 245.24,173.018 245.56,172.166 C245.946,171.148 246.314,170.122 246.676,169.092 C246.976,168.233 247.276,167.374 247.56,166.507 C247.901,165.463 248.219,164.407 248.532,163.358 C248.792,162.488 249.053,161.619 249.294,160.741 C249.587,159.674 249.854,158.598 250.119,157.522 C250.336,156.643 250.556,155.765 250.754,154.88 C250.998,153.789 251.213,152.689 251.428,151.589 C251.602,150.704 251.781,149.82 251.936,148.928 C252.129,147.812 252.29,146.686 252.454,145.562 C252.583,144.675 252.721,143.791 252.832,142.899 C252.973,141.754 253.078,140.599 253.189,139.451 C253.273,138.567 253.37,137.685 253.436,136.797 C253.523,135.623 253.57,134.441 253.625,133.26 C253.664,132.384 253.725,131.512 253.742,130.633 C253.772,129.414 253.758,128.189 253.753,126.964 C253.753,126.116 253.766,125.269 253.745,124.418 C253.712,123.131 253.633,121.839 253.562,120.547 C253.519,119.747 253.497,118.954 253.438,118.154 C253.332,116.725 253.171,115.292 253.016,113.854 C252.943,113.187 252.898,112.523 252.816,111.854 C252.553333,109.75 252.238333,107.641667 251.871,105.529 C251.503667,103.416333 251.083,101.330667 250.609,99.272 C250.439,98.522 250.231,97.79 250.048,97.045 C249.727,95.745 249.415,94.434 249.055,93.145 C248.812,92.274 248.529,91.422 248.268,90.56 C247.923,89.424 247.591,88.282 247.218,87.16 C246.918,86.252 246.576,85.36 246.253,84.468 C245.874,83.418 245.508,82.361 245.104,81.326 C244.746,80.408 244.355,79.511 243.978,78.605 C243.566,77.615 243.163,76.623 242.726,75.647 C242.317,74.733 241.877,73.838 241.448,72.935 C241.001,71.995 240.559,71.051 240.091,70.127 C239.632,69.227 239.148,68.34 238.669,67.451 C238.19,66.562 237.709,65.651 237.205,64.773 C236.701,63.895 236.173,63.02 235.648,62.149 C235.123,61.278 234.616,60.43 234.08,59.587 C233.53,58.723 232.961,57.878 232.393,57.03 C231.842,56.21 231.293,55.388 230.724,54.582 C230.132,53.743 229.524,52.92 228.91,52.096 C228.327,51.311 227.746,50.529 227.146,49.76 C226.512,48.947 225.863,48.15 225.212,47.354 C224.597,46.605 223.981,45.854 223.351,45.125 C222.678,44.342 221.994,43.572 221.303,42.807 C220.659667,42.0936667 220.009667,41.3873333 219.353,40.688 C218.642333,39.9346667 217.922667,39.1923333 217.194,38.461 C216.521333,37.783 215.842333,37.1126667 215.157,36.45 C214.410333,35.7306667 213.655333,35.0213333 212.892,34.322 C212.192,33.6793333 211.485333,33.046 210.772,32.422 C209.992667,31.7386667 209.205667,31.064 208.411,30.398 C207.683,29.7913333 206.949667,29.1936667 206.211,28.605 C205.399667,27.957 204.581,27.3186667 203.755,26.69 C203.002,26.118 202.24,25.56 201.474,25.007 C200.632,24.398 199.789,23.794 198.934,23.207 C198.154,22.671 197.364,22.152 196.574,21.635 C195.704,21.065 194.834,20.499 193.951,19.952 C193.151,19.452 192.335,18.974 191.52,18.495 C190.62,17.966 189.728,17.439 188.82,16.933 C187.994,16.474 187.158,16.033 186.32,15.593 C185.399,15.107 184.48,14.62 183.547,14.155 C182.7,13.734 181.839,13.336 180.982,12.933 C180.04,12.491 179.1,12.044 178.146,11.625 C177.276,11.242 176.394,10.886 175.513,10.525 C174.551,10.125 173.591,9.725 172.618,9.35 C171.729,9.008 170.827,8.696 169.929,8.374 C168.947,8.021 167.969,7.66 166.978,7.332 C166.069,7.032 165.146,6.763 164.229,6.482 C163.229,6.182 162.237,5.86 161.229,5.582 C160.303,5.325 159.367,5.102 158.429,4.866 C157.413,4.608 156.401,4.334 155.377,4.101 C154.436,3.887 153.485,3.713 152.537,3.52 C151.506,3.311 150.481,3.083 149.443,2.898 C148.487,2.729 147.521,2.598 146.56,2.455 C145.516,2.294 144.477,2.113 143.426,1.979 C142.604,1.879 141.773,1.812 140.949,1.723 C138.749,1.48633333 136.536333,1.30866667 134.311,1.19 C133.311,1.136 132.311,1.06 131.301,1.029 C130.254,0.998 129.201,1.014 128.148,1.008 C127.131,1.008 126.119,0.98 125.099,0.999 C124.039,1.02 122.973,1.086 121.91,1.132 C120.891,1.178 119.873,1.207 118.851,1.277 C117.78,1.351 116.706,1.468 115.634,1.57 C114.759,1.653 113.89,1.707 113.014,1.808 L113.014,1.826 C110.532,2.112 108.045,2.452 105.553,2.889 C36.8084603,14.9503467 -9.14234665,80.4564603 2.919,149.201 C14.9803467,217.94554 80.4864603,263.896347 149.231,251.835 C151.723,251.398 154.177,250.87 156.607,250.294 L156.607,250.31 C157.378,250.128 158.128,249.91 158.891,249.71 C160.036,249.416 161.185,249.135 162.314,248.81 C163.196,248.557 164.061,248.27 164.934,247.998 C166.05,247.653 167.173,247.321 168.273,246.946 C169.129,246.654 169.965,246.326 170.812,246.017 C171.906,245.617 173.012,245.235 174.088,244.807 C174.888,244.489 175.67,244.135 176.463,243.801 C178.766333,242.832333 181.033,241.800667 183.263,240.706 C183.89,240.398 184.533,240.111 185.153,239.792 C186.039,239.337 186.899,238.844 187.771,238.368 C188.685,237.868 189.61,237.392 190.508,236.868 C191.348,236.385 192.161,235.868 192.985,235.368 C193.885,234.819 194.801,234.283 195.685,233.713 C196.49,233.194 197.272,232.645 198.064,232.113 C198.942,231.521 199.827,230.938 200.688,230.325 C201.461,229.774 202.209,229.195 202.968,228.625 C203.818,227.99 204.674,227.363 205.506,226.707 C206.247,226.123 206.964,225.516 207.691,224.916 C208.509,224.242 209.332,223.574 210.131,222.879 C210.841,222.264 211.531,221.627 212.222,220.996 C213.007,220.284 213.796,219.576 214.562,218.844 C215.237,218.199 215.891,217.537 216.551,216.877 C217.313,216.146 218.067,215.398 218.799,214.63 Z" id="Path_195" fill="#AC7DFD"></path>
                        <path d="M32.794,143.971 C26.0776309,105.706539 43.0730668,67.1640855 75.8550744,46.3165783 C108.637082,25.4690711 150.749515,26.4222552 182.554698,48.731646 C214.359881,71.0410369 229.594045,110.312984 221.153265,148.234374 C212.712485,186.155764 182.259103,215.258291 143.994,221.971 C91.748719,231.13508 41.9652527,196.215022 32.794,143.971 Z" id="Path_196" fill="#A7CDF2"></path>
                        <g id="Group_119" transform="translate(89.403000, 66.580000)" fill="#FFFFFF" fill-rule="nonzero">
                            <path d="M62.419,35.049 C61.1407115,34.0813716 59.7478414,33.2752736 58.272,32.649 C56.2982494,31.7766979 54.2614617,31.0546461 52.179,30.489 C49.7557756,29.82991 47.2834744,29.3667506 44.786,29.104 C42.1163286,28.8150598 39.4247179,28.7892691 36.75,29.027 L41.289,57.711 L44.008,57.847 C48.7552356,58.2032332 53.4782565,58.8302538 58.154,59.725 C62.0030287,60.4295699 65.7247084,61.707096 69.195,63.515 C72.2486154,65.1593314 74.8781588,67.4910356 76.876,70.326 C79.0522609,73.6097949 80.4450788,77.3496357 80.947,81.257 C81.756266,85.5659121 81.5345605,90.0051609 80.3,94.212 C79.1258241,97.8995613 77.1029687,101.260255 74.394,104.024 C71.5219946,106.922412 68.1365666,109.262101 64.41,110.924 C60.2855325,112.79149 55.9393346,114.124284 51.477,114.89 L53.777,129.442 L46.571,130.578 L44.228,115.756 C37.6788018,116.355385 31.0779727,116.036636 24.617,114.809 C18.3380051,113.617461 12.2886704,111.434151 6.696,108.341 L11.659,93.923 C13.2061251,95.0824745 14.8843348,96.0558361 16.659,96.823 C19.0474257,97.9013091 21.5153992,98.7939519 24.041,99.493 C27.001243,100.323909 30.0182899,100.937211 33.068,101.328 C36.3604441,101.768677 39.6862097,101.908255 43.004,101.745 L38.465,73.064 C37.885,72.97 37.278,72.896 36.656,72.852 C36.0498321,72.8137346 35.4460341,72.7443096 34.847,72.644 C30.3246663,72.2167084 25.8308299,71.5282256 21.388,70.582 C17.9046696,69.8782003 14.5603061,68.6080178 11.488,66.822 C8.84678223,65.2527372 6.59137343,63.1107823 4.888,60.554 C3.06480456,57.6358261 1.89153311,54.3591927 1.448,50.947 C0.713234978,46.8179366 0.865266485,42.5798027 1.894,38.514 C2.88850179,34.804384 4.66680013,31.3511094 7.109,28.387 C9.64841031,25.3291177 12.7341686,22.7699729 16.209,20.84 C20.0539258,18.7097844 24.1764071,17.124603 28.458,16.13 L26.244,2.141 L33.444,0.996 L35.662,14.996 C41.4102418,14.3963012 47.2174881,14.7234652 52.862,15.965 C57.9314756,17.0743795 62.8380386,18.8283077 67.462,21.184 L62.419,35.049 Z M17.26,45.889 C17.874,49.763 19.698,52.464 22.731,53.969 C25.764,55.474 30.168,56.531 35.946,57.134 L31.622,29.842 C26.032,31.0086667 22.084,32.982 19.778,35.762 C17.4584745,38.5872494 16.5337275,42.3064366 17.26,45.889 Z M64.586,85.551 C64.1724498,81.7974542 61.7567604,78.5630103 58.275,77.101 C53.6405727,75.2709136 48.770125,74.1070025 43.809,73.644 L48.152,101.075 C54.0506667,100.048333 58.424,98.22 61.272,95.59 C64.0872197,93.0737115 65.3492022,89.2485174 64.584,85.551 L64.586,85.551 Z" id="Path_197"></path>
                        </g>
                    </g>
                    <g id="Object-3" transform="translate(1350.533000, 0.560000)">
                        <path d="M171.812,203.74 C172.242,203.102 172.657,202.448 173.075,201.797 C173.555,201.052 174.033,200.307 174.499,199.545 C174.906,198.881 175.299,198.204 175.699,197.528 C176.154,196.75 176.607,195.972 177.048,195.179 C177.43,194.491 177.801,193.792 178.171,193.094 C178.601,192.286 179.027,191.474 179.443,190.65 C179.801,189.939 180.149,189.22 180.495,188.498 C180.895,187.66 181.295,186.819 181.684,185.968 C182.017333,185.234667 182.344333,184.497333 182.665,183.756 C183.040333,182.889333 183.409,182.016 183.771,181.136 C184.079,180.386 184.379,179.630667 184.671,178.87 C185.019,177.974667 185.359333,177.074667 185.692,176.17 C185.974,175.402 186.25,174.629333 186.52,173.852 C186.84,172.932 187.151,172.005333 187.453,171.072 C187.708,170.286 187.96,169.5 188.203,168.707 C188.494,167.762 188.771,166.807 189.045,165.854 C189.274,165.054 189.501,164.254 189.717,163.441 C189.976,162.475 190.217,161.501 190.463,160.524 C190.663,159.708 190.863,158.893 191.054,158.071 C191.282,157.08 191.496,156.082 191.705,155.083 C191.879,154.256 192.054,153.432 192.214,152.599 C192.414,151.586 192.59,150.566 192.766,149.543 C192.91,148.709 193.058,147.876 193.19,147.035 C193.354,146 193.497,144.956 193.641,143.912 C193.756,143.071 193.876,142.232 193.98,141.386 C194.11,140.327 194.218,139.259 194.327,138.193 C194.413,137.351 194.506,136.512 194.58,135.666 C194.673,134.58 194.745,133.486 194.819,132.392 C194.874,131.553 194.941,130.717 194.984,129.874 C195.043,128.76 195.074,127.639 195.11,126.518 C195.137,125.687 195.175,124.859 195.189,124.024 C195.21,122.867 195.2,121.704 195.196,120.542 C195.196,119.737 195.205,118.934 195.191,118.127 C195.169,116.905 195.116,115.679 195.068,114.453 C195.039,113.697 195.025,112.941 194.985,112.183 C194.914,110.827 194.807,109.466 194.703,108.105 C194.655,107.471 194.624,106.841 194.569,106.205 C194.393,104.205 194.182,102.205 193.936,100.205 C193.69,98.205 193.408667,96.2256667 193.092,94.267 C192.978,93.555 192.839,92.86 192.717,92.153 C192.503,90.916 192.294,89.675 192.053,88.453 C191.89,87.626 191.701,86.818 191.527,86 C191.297,84.922 191.075,83.84 190.827,82.776 C190.627,81.916 190.397,81.076 190.182,80.222 C189.929,79.222 189.682,78.222 189.414,77.24 C189.174,76.369 188.914,75.517 188.66,74.656 C188.384,73.718 188.115,72.776 187.822,71.85 C187.548,70.982 187.254,70.132 186.967,69.276 C186.667,68.384 186.373,67.489 186.059,66.611 C185.753,65.754 185.429,64.911 185.109,64.072 C184.789,63.233 184.467,62.372 184.13,61.53 C183.793,60.688 183.439,59.867 183.088,59.041 C182.737,58.215 182.398,57.41 182.039,56.609 C181.671,55.79 181.29,54.987 180.909,54.183 C180.541,53.404 180.173,52.624 179.794,51.859 C179.394,51.059 178.989,50.281 178.581,49.5 C178.19,48.756 177.801,48.012 177.399,47.282 C176.976,46.512 176.542,45.754 176.105,45 C175.695,44.288 175.283,43.581 174.86,42.884 C174.411,42.141 173.953,41.41 173.491,40.684 C173.06,40.007 172.627,39.335 172.191,38.672 C171.716,37.958 171.233,37.256 170.747,36.559 C170.297,35.9156667 169.842667,35.2793333 169.384,34.65 C168.884667,33.9673333 168.379667,33.2943333 167.869,32.631 C167.402333,32.021 166.929667,31.421 166.451,30.831 C165.929,30.1823333 165.402333,29.542 164.871,28.91 C164.384,28.334 163.892,27.768 163.396,27.21 C162.853333,26.596 162.306,25.9903333 161.754,25.393 C161.254,24.85 160.74,24.321 160.228,23.793 C159.665,23.216 159.1,22.642 158.528,22.084 C158.006,21.576 157.479,21.084 156.949,20.592 C156.368,20.052 155.786,19.515 155.194,18.992 C154.657,18.52 154.113,18.065 153.569,17.61 C152.969,17.11 152.369,16.61 151.762,16.128 C151.21,15.691 150.65,15.275 150.091,14.856 C149.474,14.394 148.859,13.932 148.235,13.491 C147.669,13.091 147.092,12.714 146.52,12.331 C145.889,11.912 145.26,11.488 144.62,11.091 C144.038,10.728 143.447,10.391 142.859,10.045 C142.215,9.667 141.574,9.284 140.923,8.93 C140.323,8.606 139.723,8.309 139.123,8.003 C138.466,7.669 137.811,7.326 137.148,7.014 C136.539,6.729 135.923,6.475 135.309,6.208 C134.641,5.919 133.978,5.618 133.303,5.352 C132.684,5.107 132.058,4.896 131.434,4.672 C130.754,4.427 130.077,4.172 129.392,3.946 C128.762,3.746 128.126,3.578 127.492,3.395 C126.803,3.195 126.117,2.98 125.423,2.806 C124.783,2.645 124.137,2.525 123.494,2.385 C122.794,2.233 122.101,2.062 121.394,1.934 C120.845,1.834 120.288,1.776 119.737,1.691 C118.265667,1.46633333 116.785667,1.29766667 115.297,1.185 C114.625,1.133 113.957,1.061 113.283,1.033 C112.583,1.003 111.877,1.018 111.173,1.013 C110.493,1.008 109.816,0.985 109.133,1.004 C108.424,1.024 107.711,1.085 107,1.131 C106.319,1.174 105.637,1.202 104.954,1.269 C104.238,1.338 103.52,1.45 102.802,1.547 C102.217,1.625 101.635,1.676 101.049,1.773 L101.049,1.79 C99.389,2.062 97.726,2.384 96.058,2.799 C50.068,14.248 19.33,76.417 27.397,141.654 C35.464,206.891 79.289,250.507 125.277,239.054 C126.945,238.638 128.585,238.138 130.211,237.591 L130.211,237.607 C130.727,237.433 131.229,237.223 131.739,237.037 C132.505,236.759 133.273,236.491 134.03,236.185 C134.62,235.944 135.199,235.672 135.782,235.415 C136.529,235.087 137.282,234.772 138.016,234.415 C138.588,234.138 139.148,233.827 139.716,233.534 C140.447,233.155 141.185,232.792 141.907,232.386 C142.443,232.086 142.966,231.748 143.496,231.431 C145.036667,230.511667 146.552333,229.532667 148.043,228.494 C148.462,228.201 148.892,227.93 149.307,227.627 C149.9,227.195 150.475,226.727 151.058,226.276 C151.669,225.805 152.289,225.349 152.889,224.857 C153.451,224.399 153.995,223.906 154.547,223.431 C155.147,222.91 155.761,222.401 156.356,221.86 C156.894,221.368 157.417,220.848 157.947,220.34 C158.534,219.777 159.127,219.225 159.702,218.64 C160.22,218.117 160.72,217.568 161.228,217.03 C161.797,216.43 162.37,215.83 162.928,215.21 C163.428,214.656 163.904,214.078 164.391,213.51 C164.938,212.87 165.491,212.236 166.023,211.577 C166.498,210.992 166.957,210.388 167.423,209.79 C167.948,209.114 168.476,208.441 168.988,207.748 C169.441,207.136 169.878,206.507 170.32,205.882 C170.823,205.182 171.326,204.472 171.812,203.74 Z" id="Path_198" fill="#353B6E"></path>
                        <path d="M146.699,203.74 C147.129,203.102 147.544,202.448 147.962,201.797 C148.442,201.052 148.92,200.307 149.386,199.545 C149.793,198.881 150.186,198.204 150.586,197.528 C151.041,196.75 151.494,195.972 151.934,195.179 C152.316,194.491 152.688,193.792 153.058,193.094 C153.488,192.286 153.914,191.474 154.33,190.65 C154.688,189.939 155.036,189.22 155.382,188.498 C155.782,187.66 156.182,186.819 156.571,185.968 C156.904333,185.234667 157.231333,184.497333 157.552,183.756 C157.927333,182.889333 158.296,182.016 158.658,181.136 C158.966,180.386 159.266,179.630667 159.558,178.87 C159.906667,177.974667 160.247,177.074667 160.579,176.17 C160.861,175.402 161.137,174.629333 161.407,173.852 C161.727,172.932 162.038,172.005333 162.34,171.072 C162.595,170.286 162.847,169.5 163.09,168.707 C163.381,167.762 163.659,166.807 163.932,165.854 C164.161,165.054 164.387,164.254 164.604,163.441 C164.863,162.475 165.104,161.501 165.35,160.524 C165.55,159.708 165.75,158.893 165.941,158.071 C166.169,157.08 166.383,156.082 166.592,155.083 C166.765,154.256 166.94,153.432 167.101,152.599 C167.301,151.586 167.475,150.566 167.653,149.543 C167.797,148.709 167.945,147.876 168.077,147.035 C168.241,146 168.384,144.956 168.528,143.912 C168.643,143.071 168.764,142.232 168.867,141.386 C168.997,140.327 169.105,139.259 169.214,138.193 C169.3,137.351 169.393,136.512 169.467,135.666 C169.56,134.58 169.631,133.486 169.706,132.392 C169.761,131.553 169.826,130.717 169.871,129.874 C169.93,128.76 169.961,127.639 169.997,126.518 C170.024,125.687 170.061,124.859 170.076,124.024 C170.096,122.867 170.087,121.704 170.084,120.542 C170.084,119.737 170.093,118.934 170.079,118.127 C170.057,116.905 170.004,115.679 169.956,114.453 C169.927,113.697 169.913,112.941 169.873,112.183 C169.802,110.827 169.695,109.466 169.591,108.105 C169.543,107.471 169.512,106.841 169.456,106.205 C169.280667,104.205 169.07,102.205 168.824,100.205 C168.578,98.205 168.296667,96.2256667 167.98,94.267 C167.866,93.555 167.727,92.86 167.605,92.153 C167.391,90.916 167.182,89.675 166.941,88.453 C166.778,87.626 166.589,86.818 166.415,86 C166.185,84.922 165.962,83.84 165.715,82.776 C165.515,81.916 165.285,81.076 165.07,80.222 C164.816,79.222 164.57,78.222 164.302,77.24 C164.062,76.369 163.802,75.517 163.548,74.656 C163.273,73.718 163.002,72.776 162.71,71.85 C162.437,70.982 162.143,70.132 161.855,69.276 C161.555,68.384 161.261,67.489 160.947,66.611 C160.641,65.754 160.316,64.911 159.996,64.072 C159.676,63.233 159.354,62.372 159.017,61.53 C158.68,60.688 158.326,59.867 157.975,59.041 C157.624,58.215 157.285,57.41 156.926,56.609 C156.558,55.79 156.177,54.987 155.796,54.183 C155.428,53.404 155.06,52.624 154.681,51.859 C154.281,51.059 153.876,50.281 153.468,49.5 C153.077,48.756 152.688,48.012 152.286,47.282 C151.863,46.512 151.429,45.754 150.992,45 C150.581,44.288 150.169,43.581 149.747,42.884 C149.298,42.141 148.839,41.41 148.378,40.684 C147.947333,40.0066667 147.514,39.336 147.078,38.672 C146.603,37.958 146.12,37.256 145.634,36.559 C145.184,35.9156667 144.729667,35.2793333 144.271,34.65 C143.771667,33.9673333 143.266667,33.2943333 142.756,32.631 C142.289333,32.021 141.816667,31.421 141.338,30.831 C140.816,30.1823333 140.289333,29.542 139.758,28.91 C139.271,28.334 138.779,27.768 138.283,27.21 C137.740333,26.596 137.193,25.9903333 136.641,25.393 C136.141,24.85 135.626,24.321 135.114,23.793 C134.551,23.216 133.986,22.642 133.414,22.084 C132.892,21.576 132.365,21.084 131.835,20.592 C131.253,20.052 130.671,19.515 130.08,18.992 C129.543,18.52 128.999,18.065 128.455,17.61 C127.855,17.11 127.255,16.61 126.648,16.128 C126.096,15.691 125.536,15.275 124.977,14.856 C124.361,14.394 123.745,13.932 123.122,13.491 C122.555,13.091 121.979,12.714 121.406,12.331 C120.776,11.912 120.146,11.488 119.506,11.091 C118.924,10.728 118.333,10.391 117.745,10.045 C117.102,9.667 116.46,9.284 115.809,8.93 C115.209,8.606 114.609,8.309 114.009,8.003 C113.352,7.669 112.697,7.326 112.034,7.014 C111.425,6.729 110.809,6.475 110.195,6.208 C109.528,5.919 108.864,5.618 108.189,5.352 C107.571,5.107 106.943,4.896 106.32,4.672 C105.64,4.427 104.963,4.172 104.277,3.946 C103.649,3.746 103.012,3.578 102.377,3.395 C101.688,3.195 101.001,2.98 100.307,2.806 C99.668,2.645 99.022,2.525 98.379,2.385 C97.679,2.233 96.986,2.062 96.279,1.934 C95.73,1.834 95.173,1.776 94.622,1.691 C93.1506667,1.46633333 91.6706667,1.29766667 90.182,1.185 C89.51,1.133 88.842,1.061 88.168,1.033 C87.468,1.003 86.761,1.018 86.059,1.013 C85.379,1.008 84.702,0.985 84.018,1.004 C83.309,1.024 82.596,1.085 81.886,1.131 C81.204,1.174 80.523,1.202 79.839,1.269 C79.123,1.338 78.405,1.45 77.687,1.547 C77.102,1.625 76.519,1.676 75.933,1.773 L75.933,1.79 C74.273,2.062 72.61,2.384 70.942,2.799 C24.952,14.248 -5.786,76.417 2.281,141.654 C10.348,206.891 54.173,250.507 100.161,239.054 C101.829,238.638 103.469,238.138 105.095,237.591 L105.095,237.607 C105.61,237.433 106.113,237.223 106.623,237.037 C107.389,236.759 108.157,236.491 108.914,236.185 C109.504,235.944 110.083,235.672 110.666,235.415 C111.412,235.087 112.166,234.772 112.9,234.415 C113.472,234.138 114.031,233.827 114.6,233.534 C115.331,233.155 116.069,232.792 116.791,232.386 C117.327,232.086 117.85,231.748 118.381,231.431 C119.921667,230.511667 121.437,229.532667 122.927,228.494 C123.346,228.201 123.776,227.93 124.191,227.627 C124.784,227.195 125.358,226.727 125.942,226.276 C126.553,225.805 127.172,225.349 127.773,224.857 C128.335,224.399 128.879,223.906 129.43,223.431 C130.035,222.91 130.645,222.401 131.239,221.86 C131.778,221.368 132.301,220.848 132.831,220.34 C133.418,219.777 134.01,219.225 134.586,218.64 C135.102,218.117 135.604,217.568 136.112,217.03 C136.679,216.43 137.253,215.83 137.812,215.21 C138.312,214.656 138.789,214.078 139.275,213.51 C139.822,212.87 140.375,212.236 140.907,211.577 C141.382,210.992 141.841,210.388 142.307,209.79 C142.832,209.114 143.36,208.441 143.872,207.748 C144.324,207.136 144.762,206.507 145.204,205.882 C145.706,205.182 146.21,204.472 146.699,203.74 Z" id="Path_199" fill="#AC7DFD"></path>
                        <path d="M22.27,136.684 C16.138,87.098 39.5,39.85 74.453,31.147 C109.406,22.444 142.709,55.592 148.843,105.178 C154.977,154.764 131.613,202.011 96.66,210.714 C61.707,219.417 28.4,186.27 22.27,136.684 Z" id="Path_200" fill="#A7CDF2"></path>
                        <g id="Group_121" transform="translate(59.807000, 64.187000)" fill="#FFFFFF" fill-rule="nonzero">
                            <path d="M42.087,32.314 C41.2717352,31.4297734 40.3378501,30.6628097 39.312,30.035 C38.0218633,29.2231641 36.6569708,28.5366995 35.236,27.985 C33.6404556,27.3671099 31.9818299,26.9264641 30.29,26.671 C28.5098103,26.3964031 26.6999882,26.3718323 24.913,26.598 L27.95,53.821 L29.769,53.949 C32.9659642,54.2913773 36.1306174,54.8875921 39.233,55.732 C41.9023128,56.4484802 44.40932,57.6705826 46.618,59.332 C48.8011228,61.0669798 50.5588708,63.277932 51.757,65.796 C53.2560982,69.0711645 54.1776701,72.5808512 54.481,76.17 C55.0223207,80.2635178 54.875973,84.4187093 54.048,88.464 C53.3359945,91.7915856 51.9949674,94.9525537 50.097,97.777 C48.3260045,100.381041 46.0558192,102.607719 43.418,104.328 C40.7633033,106.055369 37.8387324,107.327201 34.765,108.091 L36.303,121.902 L31.483,122.981 L29.915,108.914 C20.9356913,110.102317 11.8616798,107.559049 4.808,101.877 L8.127,88.194 C9.1156342,89.2542831 10.2400316,90.1792882 11.471,90.945 C13.0303796,91.9490335 14.6842591,92.7980785 16.409,93.48 C18.3595113,94.2597385 20.3828293,94.8432848 22.449,95.222 C24.6380871,95.6392574 26.8718999,95.7720224 29.095,95.617 L26.059,68.399 C25.6603694,68.3064719 25.2562026,68.2396674 24.849,68.199 C24.4413978,68.161394 24.0370238,68.0945553 23.639,67.999 C20.5916901,67.587758 17.5821127,66.9336766 14.639,66.043 C12.2087492,65.3208055 9.95324527,64.1059106 8.013,62.474 C6.13291027,60.830736 4.62793131,58.8026123 3.6,56.527 C2.34795865,53.6311388 1.57131368,50.552248 1.3,47.409 C0.809341323,43.4827964 0.910466689,39.5051987 1.6,35.609 C2.21294937,32.231573 3.39257705,28.9821028 5.089,25.998 C6.65555749,23.2521563 8.7209336,20.8228806 11.179,18.835 C13.6319386,16.8797623 16.406756,15.36681 19.379,14.364 L17.897,1.088 L22.716,0.002 L24.2,13.286 C28.0534989,12.7185178 31.9855293,13.0327383 35.7,14.205 C39.2021878,15.3152138 42.5003123,16.9880874 45.465,19.158 L42.087,32.314 Z M11.877,42.602 C12.288,46.278 13.508,48.841 15.537,50.27 C17.566,51.699 20.512,52.701 24.377,53.27 L21.485,27.37 C17.7436667,28.476 15.1026667,30.349 13.562,32.989 C11.962616,35.9222929 11.3706294,39.2996031 11.877,42.602 Z M43.537,80.243 C43.1063333,76.3863333 41.699,73.7133333 39.315,72.224 C36.3265535,70.5268208 33.0424992,69.4136971 29.638,68.944 L32.543,94.976 C36.4883333,94.0013333 39.4136667,92.2663333 41.319,89.771 C43.2243333,87.2756667 43.9636667,84.0993333 43.537,80.242 L43.537,80.243 Z" id="Path_201"></path>
                        </g>
                    </g>
                </g>
            </g>
        </g>
    </g>
</svg>