<svg width="55" height="55" viewBox="0 0 55 55" fill="none" xmlns="http://www.w3.org/2000/svg">
<path d="M25.7812 34.375H15.4688C14.1012 34.375 12.7897 34.9182 11.8227 35.8852C10.8557 36.8522 10.3125 38.1637 10.3125 39.5313V42.9688H13.75V39.5313C13.75 39.0754 13.9311 38.6382 14.2534 38.3159C14.5757 37.9936 15.0129 37.8125 15.4688 37.8125H25.7812C26.2371 37.8125 26.6743 37.9936 26.9966 38.3159C27.3189 38.6382 27.5 39.0754 27.5 39.5313V42.9688H30.9375V39.5313C30.9375 38.1637 30.3943 36.8522 29.4273 35.8852C28.4603 34.9182 27.1488 34.375 25.7812 34.375V34.375ZM20.625 32.6563C21.9847 32.6563 23.314 32.253 24.4445 31.4976C25.5751 30.7422 26.4563 29.6684 26.9767 28.4122C27.497 27.156 27.6332 25.7736 27.3679 24.44C27.1026 23.1064 26.4478 21.8814 25.4864 20.9199C24.5249 19.9584 23.2999 19.3036 21.9662 19.0384C20.6326 18.7731 19.2503 18.9092 17.9941 19.4296C16.7378 19.9499 15.6641 20.8311 14.9086 21.9617C14.1532 23.0923 13.75 24.4215 13.75 25.7813C13.75 27.6046 14.4743 29.3533 15.7636 30.6426C17.053 31.9319 18.8016 32.6563 20.625 32.6563ZM20.625 22.3438C21.3049 22.3438 21.9695 22.5454 22.5348 22.9231C23.1001 23.3008 23.5407 23.8377 23.8008 24.4658C24.061 25.0939 24.1291 25.7851 23.9964 26.4519C23.8638 27.1187 23.5364 27.7312 23.0557 28.2119C22.5749 28.6927 21.9624 29.0201 21.2956 29.1527C20.6288 29.2853 19.9376 29.2173 19.3095 28.9571C18.6814 28.6969 18.1445 28.2563 17.7668 27.691C17.3891 27.1257 17.1875 26.4611 17.1875 25.7813C17.1875 24.8696 17.5497 23.9952 18.1943 23.3506C18.839 22.7059 19.7133 22.3438 20.625 22.3438V22.3438Z" fill="black"/>
<path d="M48.125 32.6562V48.125H6.875V13.75H27.5V10.3125H6.875C5.96332 10.3125 5.08898 10.6747 4.44432 11.3193C3.79966 11.964 3.4375 12.8383 3.4375 13.75V48.125C3.4375 49.0367 3.79966 49.911 4.44432 50.5557C5.08898 51.2003 5.96332 51.5625 6.875 51.5625H48.125C49.0367 51.5625 49.911 51.2003 50.5557 50.5557C51.2003 49.911 51.5625 49.0367 51.5625 48.125V32.6562H48.125Z" fill="black"/>
<path d="M34.375 32.6562H44.6875V36.0938H34.375V32.6562ZM37.8125 39.5312H44.6875V42.9688H37.8125V39.5312ZM55 17.1875V13.75H51.3889C51.1672 12.6741 50.7401 11.6511 50.1308 10.737L52.6917 8.17609L50.2614 5.74578L47.7005 8.30672C46.7864 7.69744 45.7634 7.27026 44.6875 7.04859V3.4375H41.25V7.04859C40.1741 7.27026 39.1511 7.69744 38.237 8.30672L35.6761 5.74578L33.2458 8.17609L35.8067 10.737C35.1974 11.6511 34.7703 12.6741 34.5486 13.75H30.9375V17.1875H34.5486C34.7703 18.2634 35.1974 19.2864 35.8067 20.2005L33.2458 22.7614L35.6761 25.1917L38.237 22.6308C39.1511 23.2401 40.1741 23.6672 41.25 23.8889V27.5H44.6875V23.8889C45.7634 23.6672 46.7864 23.2401 47.7005 22.6308L50.2614 25.1917L52.6917 22.7614L50.1308 20.2005C50.7401 19.2864 51.1672 18.2634 51.3889 17.1875H55ZM42.9688 20.625C41.9489 20.625 40.952 20.3226 40.1041 19.756C39.2562 19.1894 38.5953 18.3841 38.205 17.442C37.8147 16.4998 37.7126 15.463 37.9116 14.4628C38.1105 13.4626 38.6016 12.5438 39.3227 11.8227C40.0438 11.1016 40.9626 10.6105 41.9628 10.4116C42.963 10.2126 43.9998 10.3147 44.942 10.705C45.8841 11.0953 46.6894 11.7561 47.256 12.6041C47.8226 13.452 48.125 14.4489 48.125 15.4688C48.1236 16.8359 47.58 18.1466 46.6133 19.1133C45.6466 20.08 44.3359 20.6236 42.9688 20.625V20.625Z" fill="black"/>
</svg>
