<svg width="70" height="70" viewBox="0 0 70 70" fill="none" xmlns="http://www.w3.org/2000/svg">
<path d="M61.25 37.1875V48.125H8.75V13.125H30.625V8.75H8.75C7.58968 8.75 6.47688 9.21094 5.65641 10.0314C4.83594 10.8519 4.375 11.9647 4.375 13.125V48.125C4.375 49.2853 4.83594 50.3981 5.65641 51.2186C6.47688 52.0391 7.58968 52.5 8.75 52.5H26.25V61.25H17.5V65.625H52.5V61.25H43.75V52.5H61.25C62.4103 52.5 63.5231 52.0391 64.3436 51.2186C65.1641 50.3981 65.625 49.2853 65.625 48.125V37.1875H61.25ZM39.375 61.25H30.625V52.5H39.375V61.25Z" fill="black"/>
<path d="M65.625 21.875V17.5H61.0291C60.7469 16.1307 60.2033 14.8286 59.4278 13.6653L62.6872 10.4059L59.5941 7.31281L56.3347 10.5722C55.1714 9.79674 53.8693 9.25305 52.5 8.97094V4.375H48.125V8.97094C46.7557 9.25305 45.4536 9.79674 44.2903 10.5722L41.0309 7.31281L37.9378 10.4059L41.1972 13.6653C40.4217 14.8286 39.8781 16.1307 39.5959 17.5H35V21.875H39.5959C39.8781 23.2443 40.4217 24.5464 41.1972 25.7097L37.9378 28.9691L41.0309 32.0622L44.2903 28.8028C45.4536 29.5783 46.7557 30.1219 48.125 30.4041V35H52.5V30.4041C53.8693 30.1219 55.1714 29.5783 56.3347 28.8028L59.5941 32.0622L62.6872 28.9691L59.4278 25.7097C60.2033 24.5464 60.7469 23.2443 61.0291 21.875H65.625ZM50.3125 26.25C49.0146 26.25 47.7458 25.8651 46.6666 25.144C45.5874 24.4229 44.7462 23.398 44.2495 22.1989C43.7528 20.9997 43.6229 19.6802 43.8761 18.4072C44.1293 17.1342 44.7543 15.9649 45.6721 15.0471C46.5899 14.1293 47.7592 13.5043 49.0322 13.2511C50.3052 12.9979 51.6247 13.1278 52.8239 13.6245C54.023 14.1212 55.0479 14.9624 55.769 16.0416C56.4901 17.1208 56.875 18.3896 56.875 19.6875C56.8733 21.4275 56.1813 23.0956 54.951 24.326C53.7206 25.5563 52.0525 26.2483 50.3125 26.25Z" fill="black"/>
</svg>
