<svg width="80" height="80" viewBox="0 0 80 80" fill="none" xmlns="http://www.w3.org/2000/svg">
<path d="M49.6297 31.5375L41.042 29.2364C38.1983 28.4744 35.2752 30.1621 34.5133 33.0057L34.5126 33.0083C33.7506 35.852 35.4382 38.7751 38.2819 39.537L41.7206 40.4584C44.5643 41.2204 46.2519 44.1434 45.49 46.9871C44.728 49.8308 41.8049 51.5184 38.9613 50.7565L30.371 48.4547M42.7619 29.7L44.6019 22.8329M37.2385 50.3032L35.3992 57.1677M64.0392 46.4414C60.4821 59.7169 46.8365 67.5952 33.5611 64.038C20.2856 60.4809 12.4073 46.8353 15.9645 33.5598C19.5216 20.2844 33.1672 12.4061 46.4427 15.9633C59.7181 19.5204 67.5964 33.166 64.0392 46.4414Z" stroke="black" stroke-width="3" stroke-miterlimit="10" stroke-linecap="round" stroke-linejoin="round"/>
</svg>
