<svg width="60" height="60" viewBox="0 0 60 60" fill="none" xmlns="http://www.w3.org/2000/svg">
<path d="M38.9775 45L45.4725 56.25H41.145L34.65 45H25.3725L18.8775 56.25H14.55L21.045 45H9.375C8.87772 45 8.40081 44.8025 8.04918 44.4508C7.69754 44.0992 7.5 43.6223 7.5 43.125V11.25H3.75C3.25272 11.25 2.77581 11.0525 2.42417 10.7008C2.07254 10.3492 1.875 9.87228 1.875 9.375C1.875 8.87772 2.07254 8.40081 2.42417 8.04918C2.77581 7.69754 3.25272 7.5 3.75 7.5H56.25C56.7473 7.5 57.2242 7.69754 57.5758 8.04918C57.9275 8.40081 58.125 8.87772 58.125 9.375C58.125 9.87228 57.9275 10.3492 57.5758 10.7008C57.2242 11.0525 56.7473 11.25 56.25 11.25H52.5V43.125C52.5 43.6223 52.3025 44.0992 51.9508 44.4508C51.5992 44.8025 51.1223 45 50.625 45H38.9775ZM48.75 11.25H11.25V41.25H48.75V11.25ZM20.625 26.25C21.1223 26.25 21.5992 26.4475 21.9508 26.7992C22.3025 27.1508 22.5 27.6277 22.5 28.125V31.875C22.5 32.3723 22.3025 32.8492 21.9508 33.2008C21.5992 33.5525 21.1223 33.75 20.625 33.75C20.1277 33.75 19.6508 33.5525 19.2992 33.2008C18.9475 32.8492 18.75 32.3723 18.75 31.875V28.125C18.75 27.6277 18.9475 27.1508 19.2992 26.7992C19.6508 26.4475 20.1277 26.25 20.625 26.25ZM30 22.5C30.4973 22.5 30.9742 22.6975 31.3258 23.0492C31.6775 23.4008 31.875 23.8777 31.875 24.375V31.875C31.875 32.3723 31.6775 32.8492 31.3258 33.2008C30.9742 33.5525 30.4973 33.75 30 33.75C29.5027 33.75 29.0258 33.5525 28.6742 33.2008C28.3225 32.8492 28.125 32.3723 28.125 31.875V24.375C28.125 23.8777 28.3225 23.4008 28.6742 23.0492C29.0258 22.6975 29.5027 22.5 30 22.5ZM39.375 18.75C39.8723 18.75 40.3492 18.9475 40.7008 19.2992C41.0525 19.6508 41.25 20.1277 41.25 20.625V31.875C41.25 32.3723 41.0525 32.8492 40.7008 33.2008C40.3492 33.5525 39.8723 33.75 39.375 33.75C38.8777 33.75 38.4008 33.5525 38.0492 33.2008C37.6975 32.8492 37.5 32.3723 37.5 31.875V20.625C37.5 20.1277 37.6975 19.6508 38.0492 19.2992C38.4008 18.9475 38.8777 18.75 39.375 18.75Z" fill="black"/>
</svg>
