<svg width="86" height="86" viewBox="0 0 86 86" fill="none" xmlns="http://www.w3.org/2000/svg">
<path d="M57.1621 31.7987V31.7985C57.1621 25.9554 61.9202 21.2061 67.8036 21.2061C73.6814 21.2061 78.4391 25.9541 78.4391 31.7985C78.4391 37.6445 73.6815 42.391 67.8036 42.391C61.9198 42.391 57.1614 37.6438 57.1621 31.7987Z" stroke="black" stroke-width="3"/>
<path d="M49.8842 35.2465C49.8842 40.424 45.6699 44.6306 40.4596 44.6306C35.2493 44.6306 31.035 40.424 31.035 35.2465C31.035 30.069 35.2493 25.8623 40.4596 25.8623C45.6699 25.8623 49.8842 30.069 49.8842 35.2465Z" stroke="black" stroke-width="3"/>
<path d="M50.9654 60.9757V60.9759V64.7942H29.9525V60.9759C29.9525 55.412 34.4668 50.1126 40.4598 50.1126C46.4526 50.1126 50.9662 55.4127 50.9654 60.9757ZM23.9967 38.3545C23.9967 42.9294 20.2711 46.6464 15.6643 46.6464C11.0551 46.6464 7.33192 42.9304 7.33192 38.3545C7.33192 33.7772 11.0564 30.0591 15.6643 30.0591C20.2706 30.0591 23.9967 33.7773 23.9967 38.3545ZM6.3584 61.5083C6.3584 56.574 10.3635 51.8833 15.6643 51.8833C20.9641 51.8833 24.9693 56.5739 24.9693 61.5083V64.7942H6.3584V61.5083ZM55.9615 60.3868C55.9615 54.1236 61.0393 48.1492 67.8018 48.1492C74.5643 48.1492 79.6421 54.1244 79.6421 60.3868V64.7942H55.9615V60.3868Z" stroke="black" stroke-width="3"/>
</svg>
