<svg width="31" height="53" viewBox="0 0 31 53" fill="none" xmlns="http://www.w3.org/2000/svg">
<g clip-path="url(#clip0_175_2)">
<path d="M4.81043 0.654541C11.8234 0.654541 18.8364 0.654541 25.8494 0.654541C29.2648 1.50502 30.3944 3.886 30.375 6.96654C30.2901 20.3363 30.3414 33.706 30.3308 47.0757C30.3308 47.7202 30.3131 48.3896 30.1452 49.0039C29.5476 51.2003 27.9548 52.3277 25.8494 52.8551C18.8364 52.8551 11.8234 52.8551 4.81043 52.8551C4.7627 52.8231 4.7185 52.7734 4.66547 52.7592C1.71673 52.0117 0.320146 50.2148 0.320146 47.1663C0.320146 33.5888 0.31661 20.0113 0.327217 6.43566C0.327217 5.79114 0.346663 5.12177 0.514607 4.50744C1.1139 2.31288 2.70141 1.17832 4.81043 0.654541ZM29.0915 8.87701C19.8741 8.87701 10.7238 8.87701 1.55763 8.87701C1.55763 20.2173 1.55763 31.5026 1.55763 42.8109C5.5759 42.8109 9.53053 42.8109 13.6425 42.8109C12.6119 41.3283 11.5989 39.9931 10.7291 38.5692C10.2695 37.8163 9.8841 36.9268 9.78686 36.0621C9.65074 34.8583 10.6549 34.1996 11.7774 34.6293C12.2053 34.7926 12.58 35.1104 12.9601 35.3874C13.3261 35.6537 13.6655 35.9556 14.1569 36.3551C14.1569 35.7834 14.1552 35.4336 14.1569 35.0838C14.164 33.2781 14.1304 31.4724 14.1905 29.6684C14.233 28.4185 15.154 27.5023 16.22 27.4987C17.2948 27.4952 18.1876 28.3883 18.2777 29.6383C18.3343 30.4266 18.2883 31.222 18.2883 32.0388C19.25 32.1009 20.0774 32.1702 20.4663 33.1112C20.5123 33.2213 20.7545 33.3136 20.8994 33.3065C21.9318 33.2461 22.5877 33.706 22.86 34.6825C24.7321 34.8565 25.3013 35.4442 25.3102 37.3423C25.319 39.1835 25.6142 41.0727 24.4528 42.8038C26.0862 42.8038 27.5659 42.8038 29.0915 42.8038C29.0915 31.4795 29.0915 20.2173 29.0915 8.87701ZM29.2206 44.155C19.9077 44.155 10.745 44.155 1.58591 44.155C1.58591 45.5417 1.46747 46.8769 1.6142 48.1819C1.83164 50.1065 3.50577 51.5696 5.43978 51.5785C12.0355 51.6086 18.6313 51.6069 25.2253 51.5785C27.0479 51.5713 28.738 50.19 28.9961 48.4322C29.2012 47.0455 29.1534 45.6216 29.2206 44.155ZM29.0915 7.51696C29.6237 3.76527 27.3573 1.79798 24.2353 1.869C18.1169 2.00749 11.9931 1.90451 5.87113 1.91161C2.80571 1.91694 0.873476 4.46837 1.63187 7.51696C10.7662 7.51696 19.9077 7.51696 29.0915 7.51696ZM18.2972 33.049C18.2972 33.4272 18.3361 33.7557 18.2866 34.07C18.2282 34.4499 18.5535 35.0785 17.8446 35.0731C17.7014 35.0714 17.461 34.3949 17.4451 34.022C17.3938 32.7827 17.4327 31.5381 17.4239 30.297C17.415 29.079 16.936 28.3563 16.1793 28.383C15.4545 28.4096 15.0249 29.0949 15.0214 30.281C15.0143 32.7348 15.0196 35.1903 15.0179 37.6441C15.0179 37.8803 15.0603 38.143 14.9719 38.3437C14.8941 38.5177 14.6555 38.6189 14.4875 38.7503C14.3744 38.6011 14.2082 38.4662 14.1587 38.2975C14.0774 38.0241 14.1799 37.605 14.0173 37.4612C13.2253 36.7617 12.4103 36.0728 11.5229 35.5028C11.0367 35.1903 10.5294 35.4513 10.6354 36.1065C10.7327 36.6978 10.9306 37.321 11.2542 37.8181C12.2654 39.3752 13.342 40.8933 14.4363 42.3936C14.6077 42.628 14.9984 42.8251 15.2919 42.8287C17.7934 42.8624 20.2966 42.8659 22.7998 42.8251C23.1004 42.8198 23.5123 42.5659 23.6749 42.3031C24.8275 40.4281 24.4917 38.3774 24.2336 36.3622C24.1469 35.691 23.5812 35.5135 22.8882 35.6946C22.8617 36.1473 22.8794 36.6232 22.7892 37.0777C22.7503 37.2766 22.4958 37.4328 22.3384 37.6068C22.2059 37.4168 21.9743 37.2357 21.9584 37.0369C21.9124 36.4492 21.9778 35.8544 21.9531 35.2649C21.9142 34.3487 21.5907 34.1286 20.5423 34.3487C20.5423 34.8512 20.5777 35.3839 20.5229 35.9041C20.5052 36.0799 20.2577 36.2308 20.1163 36.3924C19.9625 36.2166 19.6938 36.0515 19.6779 35.8633C19.6284 35.2773 19.7008 34.6825 19.6779 34.0931C19.6372 33.1236 19.4109 32.9496 18.2972 33.049Z" fill="#86BA40"/>
<path d="M3.74585 14.0314C3.74585 11.235 3.8201 11.1604 6.61857 11.1604C9.46654 11.1604 9.51958 11.2154 9.51958 14.0989C9.51958 16.8989 9.45063 16.9682 6.63978 16.9682C3.80772 16.9682 3.74585 16.9078 3.74585 14.0314Z" fill="#86BA40"/>
<path d="M23.9827 16.9682C21.2126 16.9682 21.1383 16.8918 21.1383 14.0652C21.1383 11.2403 21.2161 11.1604 23.9845 11.1604C26.8484 11.1604 26.912 11.2225 26.912 14.0652C26.912 16.9025 26.8449 16.9682 23.9827 16.9682Z" fill="#86BA40"/>
<path d="M3.74585 22.7065C3.74585 19.9527 3.86076 19.8408 6.63978 19.8408C9.42235 19.8408 9.52134 19.9385 9.52134 22.7261C9.52134 25.6166 9.47715 25.661 6.62211 25.661C3.79535 25.661 3.74585 25.6095 3.74585 22.7065Z" fill="#86BA40"/>
<path d="M26.9121 22.8129C26.9121 25.5738 26.8272 25.6608 24.1065 25.6591C23.6363 25.6591 23.1643 25.6715 22.694 25.6555C21.6704 25.62 21.1825 25.1566 21.1472 24.125C21.1154 23.2106 21.1136 22.2927 21.1489 21.3783C21.1878 20.3786 21.7111 19.8762 22.7117 19.846C23.5055 19.8211 24.301 19.8353 25.0947 19.8424C26.41 19.8531 26.9032 20.3485 26.9121 21.6623C26.9138 22.0441 26.9121 22.4294 26.9121 22.8129Z" fill="#86BA40"/>
<path d="M15.3173 11.162C18.1547 11.162 18.2272 11.2366 18.2272 14.0987C18.2272 16.8756 18.1335 16.9697 15.3403 16.9697C12.5047 16.9697 12.4305 16.8952 12.4305 14.033C12.4305 11.249 12.5189 11.162 15.3173 11.162Z" fill="#86BA40"/>
<path d="M18.229 22.7743C18.229 25.5725 18.1406 25.6613 15.358 25.6613C12.5012 25.6613 12.4305 25.5903 12.4305 22.7441C12.4305 19.9583 12.5472 19.8394 15.2997 19.8394C18.1282 19.8394 18.229 19.9406 18.229 22.7743Z" fill="#86BA40"/>
<path d="M15.3506 48.6311C14.4985 48.6311 13.6411 48.6844 12.7978 48.6045C12.4778 48.5743 12.1861 48.2352 11.8821 48.0381C12.1685 47.8179 12.4496 47.4149 12.743 47.406C14.5038 47.3456 16.2681 47.3456 18.0288 47.406C18.3258 47.4166 18.6122 47.8108 18.9021 48.0274C18.5998 48.2298 18.3099 48.5761 17.9917 48.6063C17.1166 48.6844 16.2309 48.6311 15.3506 48.6311Z" fill="#86BA40"/>
<path d="M12.2848 5.70766C11.3637 5.66505 10.9837 5.36676 10.9801 4.71869C10.9766 4.07417 11.3708 3.71907 11.9683 3.71729C12.5234 3.71552 12.9919 4.07772 12.9106 4.64412C12.8487 5.06669 12.4527 5.43778 12.2848 5.70766Z" fill="#86BA40"/>
<path d="M19.6984 4.37087C19.6719 5.30835 19.3519 5.6741 18.719 5.68298C18.1392 5.69186 17.7679 5.35984 17.7237 4.78279C17.676 4.15425 18.0579 3.69262 18.643 3.74588C19.0567 3.78494 19.4332 4.20397 19.6984 4.37087Z" fill="#86BA40"/>
<path d="M16.3378 4.3867C16.2883 5.3153 15.9524 5.67928 15.3319 5.68284C14.7626 5.68639 14.3861 5.37034 14.3543 4.77376C14.3207 4.13635 14.6972 3.68714 15.2806 3.74573C15.6925 3.78657 16.0655 4.21092 16.3378 4.3867Z" fill="#86BA40"/>
</g>
<defs>
<clipPath id="clip0_175_2">
<rect width="30.0548" height="52.2005" fill="white" transform="translate(0.31958 0.654541)"/>
</clipPath>
</defs>
</svg>
