<svg width="77" height="77" viewBox="0 0 77 77" fill="none" xmlns="http://www.w3.org/2000/svg">
<g clip-path="url(#clip0_445_1007)">
<path d="M49.3815 8.86808L47.7749 10.551L19.2464 41.0592L13.4877 44.384L20.4652 56.4695L26.2255 53.1438L29.7166 52.3247L29.7524 52.4914L29.7803 52.5397C30.6525 56.2902 34.4967 58.8003 38.4038 57.8819C38.4216 57.8778 38.4344 57.8582 38.4492 57.8558C42.2189 56.9785 44.7442 53.1538 43.7944 49.2305L43.7577 49.0623L66.9091 43.6924L69.169 43.141L49.3815 8.86808ZM48.7046 14.6732L63.804 40.8262L25.2128 49.7605L25.0008 49.8224L21.7422 51.7038L18.2534 45.661L21.5105 43.7806L21.6732 43.6262L48.7037 14.6717L48.7046 14.6732ZM33.1132 51.5582L40.362 49.8304L40.3978 49.9971L40.424 50.0424C40.9248 52.1099 39.5474 54.0573 37.6388 54.4845C35.5721 54.9868 33.6064 53.6824 33.1769 51.7732L33.1507 51.7278L33.1132 51.5582Z" fill="black"/>
</g>
<defs>
<clipPath id="clip0_445_1007">
<rect width="55.8205" height="55.8205" fill="white" transform="translate(0 28) rotate(-30)"/>
</clipPath>
</defs>
</svg>
