<svg  viewBox="0 0 80 104" fill="none" xmlns="http://www.w3.org/2000/svg">
	<path d="M2.23867 40.6401C11.339 15.1221 14.9049 12.4724 14.9049 12.4724C14.9049 12.4724 16.4805 10.5144 20.3392 15.1252C20.3392 15.1252 22.1571 15.4379 8.09898 43.5345C6.89009 45.4171 5.38602 45.8317 3.57836 44.7808C1.76483 43.7285 1.31777 42.3502 2.23867 40.6401Z" fill="#F9BF6F"/>
	<path d="M74.8395 97.6577C39.8774 99.2798 35.1714 97.2359 35.1714 97.2359C35.1714 97.2359 32.1287 96.6198 36.1875 91.6815C36.1875 91.6815 35.8241 90.033 75.9765 91.6556C78.7765 91.9897 79.9011 93.1081 79.357 95.0172C78.8135 96.9317 77.3102 97.8116 74.8395 97.6577Z" fill="#F9BF6F"/>
	<path d="M71.4442 38.4917C37.6892 63.3213 30.5058 66.1178 30.5058 66.1178C30.5058 66.1178 25.0155 64.3398 27.6791 60.5238C27.6791 60.5238 25.643 58.9035 69.318 32.5496C72.3069 30.9261 74.043 31.1212 74.5363 33.1357C75.0332 35.1545 74.0049 36.9379 71.4442 38.4917Z" fill="#F9BF6F"/>
</svg>