<svg
            className="mobile-svg"
            version="1.1"
            xmlns="http://www.w3.org/2000/svg"
            x="0px"
            y="0px"
            viewBox="0 0 1920 1080"
          >
            <g id="Layer_2">
              <path
                className="st0"
                d="M1495.3,491.9c0,5.5-1.6,10.9-4.7,15.6c-2.3,3.6-5.5,6.7-9.6,9.1l-12.1,7.1L864.6,875.3
		c-28.5,16.6-63.8,16.7-92.4,0.2L525.5,733.4l-28.3-16.3c-4.1-2.4-7.4-5.5-9.7-9.1c-3.1-4.7-4.6-10.1-4.7-15.6
		c-0.1-9.7,4.7-19.5,14.3-25l616.4-358.7c28.6-16.6,63.8-16.7,92.4-0.2l275,158.4C1490.5,472.4,1495.3,482.1,1495.3,491.9z"
              />
            </g>
            <g id="Layer_1">
              <g>
                <path
                  className="st1"
                  d="M1490.6,412.9c-2.3,3.6-5.5,6.7-9.6,9.1l-12.1,7.1L864.6,780.8c-28.5,16.6-63.8,16.7-92.4,0.2L525.5,638.9
			l-28.3-16.3c-4.1-2.4-7.4-5.5-9.7-9.1c2.3-3.6,5.5-6.7,9.6-9.1l11.2-6.5l605.2-352.2c28.6-16.6,63.8-16.7,92.4-0.2l261.3,150.5
			l13.7,7.9C1485,406.1,1488.3,409.3,1490.6,412.9z"
                />
                <path
                  className="st2"
                  d="M1495.3,397.3c0,5.5-1.6,10.9-4.7,15.6c-2.3,3.6-5.5,6.7-9.6,9.1l-12.1,7.1L864.6,780.8
			c-28.5,16.6-63.8,16.7-92.4,0.2L525.5,638.9l-28.3-16.3c-4.1-2.4-7.4-5.5-9.7-9.1c-3.1-4.7-4.6-10.1-4.7-15.6
			c-0.1-9.7,4.7-19.5,14.3-25l616.4-358.7c28.6-16.6,63.8-16.7,92.4-0.2l275,158.4C1490.5,377.8,1495.3,387.5,1495.3,397.3z"
                />
                <defs>
                  <pattern
                    id="img1"
                    patternUnits="userSpaceOnUse"
                    width="100"
                    height="100"
                  >
                    <image
                      href="https://www.cnet.com/a/img/resize/e547a2e4388fcc5ab560f821ac170a59b9fb0143/hub/2021/12/13/d319cda7-1ddd-4855-ac55-9dcd9ce0f6eb/unnamed.png?auto=webp&fit=crop&height=1200&width=1200"
                      x="0"
                      y="0"
                      width="100"
                      height="100"
                    />
                  </pattern>
                </defs>
                <path
                  className="st3"
                  d="M818.2,780.7c-13.9,0-27.7-3.7-39.7-10.6l-275-158.4c-2.3-1.3-4.1-3-5.4-5.1c-1.7-2.6-2.6-5.6-2.6-8.8
			c0-5.9,3-11.1,8-14.1L1119.8,225c12.2-7.1,26-10.8,40.1-10.8c13.9,0,27.7,3.7,39.7,10.6l275,158.4c5.1,2.9,8.1,8.2,8.1,14.1
			c0,3.2-0.9,6.2-2.6,8.8c-1.4,2.1-3.2,3.8-5.4,5.1L858.3,769.9C846.2,776.9,832.3,780.7,818.2,780.7z"
                
				/>
                <path
                  className="st1"
                  d="M1495.3,397.3v31.7h0c-0.1,9.5-4.9,19-14.3,24.5L864.6,812.3c-28.5,16.6-63.8,16.7-92.4,0.2l-275-158.4
			c-6.3-3.7-10.6-9.1-12.7-15.2c-1.1-3.1-1.7-6.4-1.7-9.6v-31.4c0,5.5,1.6,10.9,4.7,15.6c2.3,3.6,5.6,6.8,9.7,9.1l28.3,16.3
			L772.2,781c28.6,16.5,63.9,16.4,92.4-0.2l604.2-351.7l12.1-7.1c4.1-2.4,7.3-5.5,9.6-9.1C1493.7,408.2,1495.2,402.8,1495.3,397.3
			L1495.3,397.3z"
                />
                <polygon
                  className="st2"
                  points="720.1,721.4 599.7,651.7 594.2,654.8 714.6,724.5 		"
                />
                <path
                  className="st2"
                  d="M1373.4,323.8L1253,254.1l-7.3,4.2c-3.3,1.9-3.3,6.6,0,8.5l106,61.4c4.3,2.5,9.7,2.5,14.1,0.1L1373.4,323.8z"
                />
                <path
                  className="st3"
                  d="M666.7,731.8l-56.8-32.7c-1.6-0.9-3.6,0.2-3.6,2.1v1.2c0,2.3,1.2,4.3,3.2,5.5l56.8,32.7
			c1.6,0.9,3.6-0.2,3.6-2.1v-1.2C669.8,735.1,668.6,733,666.7,731.8z"
                />
                <path
                  className="st3"
                  d="M1446.9,456.4v3.2c0,1.8-0.9,3.4-2.5,4.3l-50.2,28.9c-1.4,0.8-3.2-0.2-3.2-1.9v-3.2c0-1.8,0.9-3.4,2.5-4.3
			l50.2-28.9C1445.1,453.7,1446.9,454.7,1446.9,456.4z"
                />
                <path
                  className="st3"
                  d="M1381.8,493.9v3.2c0,1.8-0.9,3.4-2.5,4.3l-50.2,28.9c-1.4,0.8-3.2-0.2-3.2-1.9v-3.2c0-1.8,0.9-3.4,2.5-4.3
			l50.2-28.9C1380,491.2,1381.8,492.2,1381.8,493.9z"
                />
              </g>
            </g>
          </svg>